<?xml version="1.0" encoding="UTF-8" standalone="no"?>
<!-- Created with Inkscape (http://www.inkscape.org/) -->
<!DOCTYPE svg PUBLIC "-//W3C//DTD SVG 1.1//EN" "http://www.w3.org/Graphics/SVG/1.1/DTD/svg11.dtd">
<svg
   xmlns:dc="http://purl.org/dc/elements/1.1/"
   xmlns:cc="http://creativecommons.org/ns#"
   xmlns:rdf="http://www.w3.org/1999/02/22-rdf-syntax-ns#"
   xmlns:svg="http://www.w3.org/2000/svg"
   xmlns="http://www.w3.org/2000/svg"
   version="1.1"
   width="400"
   height="525"
   id="svg4981"
   xml:space="preserve"><metadata
     id="metadata4987"><rdf:RDF><cc:Work
         rdf:about=""><dc:format>image/svg+xml</dc:format><dc:type
           rdf:resource="http://purl.org/dc/dcmitype/StillImage" /><dc:title></dc:title></cc:Work></rdf:RDF></metadata><defs
     id="defs4985" /><g
     transform="matrix(1.25,0,0,-1.25,0,525)"
     id="g4989"><g
       transform="matrix(2.3102024,0,0,2.3102024,-62.652456,-12.652583)"
       id="g5160"><path
         d="M 96.8191,8.62148 96.3781,8.50391 95.9656,8.62148 C 75.7121,14.3324 59.9035,24.1063 48.8938,35.8227 36.8531,48.6582 30.5828,63.8188 30.5828,78.5973 l 0,105.6547 131.5902,0 0,-105.6547 c 0,-14.7785 -6.3,-29.9391 -18.311,-42.7746 C 132.852,24.1063 117.044,14.3324 96.8191,8.62148"
         id="path4995"
         style="fill:#fe0009;fill-opacity:1;fill-rule:evenodd;stroke:none" /><path
         d="m 96.3781,10.182 c 41.5669,11.7461 64.1469,40.8313 64.1469,68.4153 l 0,104.0357 -128.323,0 0,-104.0357 c 0,-27.584 22.5793,-56.6692 64.1761,-68.4153"
         id="path4997"
         style="fill:white;fill-opacity:1;fill-rule:evenodd;stroke:none" /><path
         d="m 33.8504,154.489 125.055,0 0,26.5246 -125.055,0 0,-26.5246 z"
         id="path4999"
         style="fill:#ffeb00;fill-opacity:1;fill-rule:evenodd;stroke:none" /><path
         d="m 96.3781,11.8598 c 19.3999,5.564 34.5899,14.955 45.1289,26.2004 11.422,12.1878 17.398,26.5832 17.398,40.5371 l 0,74.2727 -125.0546,0 0,-74.2727 c 0,-13.9539 5.9465,-28.3493 17.3984,-40.5371 C 61.7875,26.8148 76.9777,17.4238 96.3781,11.8598"
         id="path5001"
         style="fill:#ffeb00;fill-opacity:1;fill-rule:evenodd;stroke:none" /><path
         d="m 96.3781,152.841 18.3699,-37.858 42.067,-5.622 -30.704,-28.9973 7.625,-41.3321 -37.3579,19.9301 -37.3578,-19.9301 7.6246,41.3321 -30.7043,28.9973 42.0676,5.622 18.3699,37.858"
         id="path5003"
         style="fill:#fe0009;fill-opacity:1;fill-rule:evenodd;stroke:none" /><path
         d="m 96.3781,120.341 c 8.4489,0 16.0729,-3.445 21.6079,-8.979 5.534,-5.534 8.978,-13.1882 8.978,-21.5784 0,-8.4484 -3.444,-16.1027 -8.978,-21.6371 -5.535,-5.5344 -13.159,-8.9785 -21.6079,-8.9785 -8.4195,0 -16.0738,3.4441 -21.6082,8.9785 -5.5344,5.5344 -8.9785,13.1887 -8.9785,21.6371 0,8.3902 3.4441,16.0444 8.9785,21.5784 5.5344,5.534 13.1887,8.979 21.6082,8.979"
         id="path5005"
         style="fill:#e0881b;fill-opacity:1;fill-rule:evenodd;stroke:none" /><path
         d="m 113.07,113.393 c -3.504,2.503 -7.566,4.21 -12.011,4.946 -5.9176,-1.972 -10.5688,-5.77 -13.925,-10.451 -4.2684,-6.034 -6.3879,-13.4825 -6.182,-20.3415 5.0343,-0.9715 10.0683,-0.1473 14.6015,2.6492 -0.2058,6.2117 2.0903,11.6873 6.2705,16.0143 2.914,3.033 6.741,5.476 11.246,7.183"
         id="path5007"
         style="fill:#f6d211;fill-opacity:1;fill-rule:evenodd;stroke:none" /><path
         d="m 120.841,74.3285 c 2.856,4.4746 4.504,9.7738 4.504,15.4551 0,7.9484 -3.267,15.1904 -8.507,20.4304 -0.707,0.707 -1.443,1.384 -2.238,2.002 -4.563,-1.561 -8.36,-3.886 -11.275,-6.771 6.153,-3.445 11.688,-9.1848 14.838,-16.0438 2.119,-4.6219 3.179,-9.7442 2.678,-15.0727"
         id="path5009"
         style="fill:#f6d211;fill-opacity:1;fill-rule:evenodd;stroke:none" /><path
         d="m 108.507,63.4656 c 3.09,1.4426 5.916,3.4149 8.331,5.8289 0.677,0.7067 1.354,1.4129 1.942,2.1785 1.266,6.0938 0.295,12.011 -2.089,17.2512 -3.062,6.6824 -8.45,12.2458 -14.514,15.4838 -3.3559,-3.856 -5.1809,-8.6248 -5.0043,-13.9236 5.5053,-2.9442 9.1263,-7.6832 10.7743,-13.4535 1.148,-4.0332 1.325,-8.5668 0.56,-13.3653"
         id="path5011"
         style="fill:#f6d211;fill-opacity:1;fill-rule:evenodd;stroke:none" /><path
         d="m 70.7367,76.3008 c 1.3836,-2.5903 3.1207,-4.9457 5.1813,-7.0063 5.2402,-5.2398 12.482,-8.5078 20.4601,-8.5078 3.6509,0 7.1239,0.6774 10.3619,1.9133 0.913,4.7398 0.824,9.2441 -0.206,13.218 -6.094,-3.65 -13.8067,-5.5633 -21.3723,-4.8278 -5.0633,0.4711 -10.0387,2.1196 -14.425,5.2106"
         id="path5013"
         style="fill:#f6d211;fill-opacity:1;fill-rule:evenodd;stroke:none" /><path
         d="m 67.5281,92.4332 c -0.059,-0.8832 -0.1176,-1.766 -0.1176,-2.6496 0,-3.6207 0.677,-7.0652 1.884,-10.2738 4.6512,-4.1512 10.3035,-6.2703 16.0149,-6.8297 7.3594,-0.6774 14.8956,1.2363 20.7246,4.8277 -1.678,4.8578 -4.887,8.8317 -9.5973,11.334 -5.2988,-3.2973 -11.1863,-4.0625 -17.0449,-2.5906 -4.0625,1.0008 -8.0953,3.091 -11.8637,6.182"
         id="path5015"
         style="fill:#f6d211;fill-opacity:1;fill-rule:evenodd;stroke:none" /><path
         d="m 96.3781,118.722 c -7.9781,0 -15.2199,-3.268 -20.4601,-8.508 -4.2098,-4.239 -7.1535,-9.744 -8.125,-15.8968 3.6211,-3.1203 7.5656,-5.2988 11.5398,-6.3883 -0.1176,7.0656 2.0902,14.6901 6.5059,20.9011 2.9441,4.122 6.8593,7.625 11.7168,9.862 -0.3828,0.03 -0.7653,0.03 -1.1774,0.03"
         id="path5017"
         style="fill:#f6d211;fill-opacity:1;fill-rule:evenodd;stroke:none" /><path
         d="m 118.339,45.9789 c 0.324,0 0.589,-0.0879 0.795,-0.3234 0.206,-0.2063 0.324,-0.4711 0.324,-0.7657 0,-0.3234 -0.118,-0.5589 -0.324,-0.7945 -0.206,-0.2062 -0.471,-0.3242 -0.795,-0.3242 -0.294,0 -0.559,0.118 -0.765,0.3242 -0.207,0.2356 -0.324,0.4711 -0.324,0.7945 0,0.2946 0.117,0.5594 0.324,0.7657 0.206,0.2355 0.471,0.3234 0.765,0.3234"
         id="path5019"
         style="fill:#fe0009;fill-opacity:1;fill-rule:evenodd;stroke:none" /><path
         d="m 114.954,45.9789 c 0.294,0 0.559,-0.0879 0.765,-0.3234 0.235,-0.2063 0.324,-0.4711 0.324,-0.7657 0,-0.3234 -0.089,-0.5589 -0.324,-0.7945 -0.206,-0.2062 -0.471,-0.3242 -0.765,-0.3242 -0.324,0 -0.56,0.118 -0.795,0.3242 -0.207,0.2356 -0.295,0.4711 -0.295,0.7945 0,0.2946 0.088,0.5594 0.295,0.7657 0.235,0.2355 0.471,0.3234 0.795,0.3234"
         id="path5021"
         style="fill:#fe0009;fill-opacity:1;fill-rule:evenodd;stroke:none" /><path
         d="m 113.57,42.9176 6.182,0 0,-2.0899 -4.033,0 0,-2.0609 4.033,0 0,-2.0605 -4.033,0 0,-2.9735 4.033,0 0,-2.1195 -6.182,0 0,11.3043"
         id="path5023"
         style="fill:#fe0009;fill-opacity:1;fill-rule:evenodd;stroke:none" /><path
         d="m 102.148,42.9176 2.061,0 4.857,-7.4184 0,7.4184 2.12,0 0,-11.3043 -2.061,0 -4.828,7.4183 0,-7.4183 -2.149,0 0,11.3043"
         id="path5025"
         style="fill:#fe0009;fill-opacity:1;fill-rule:evenodd;stroke:none" /><path
         d="m 117.6875,998.84375 -5.46875,14.12505 2.8125,0 1.125,-2.9063 5.78125,0 1.125,2.9063 2.78125,0 -5.4375,-14.12505 -2.71875,0 z m 1.375,3.75005 1.84375,4.8437 -3.75,0 1.90625,-4.8437 z"
         transform="matrix(0.8,0,0,-0.8,0,842)"
         id="path5027"
         style="fill:#fe0009;fill-opacity:1;fill-rule:evenodd;stroke:none" /><path
         d="m 102.40625,998.84375 0,14.12505 2.65625,0 0,-5.9688 0.25,0 3.1875,5.9688 2.90625,0 -3.3125,-6.2813 c 0.88337,-0.331 1.558,-0.7808 2,-1.4063 0.44088,-0.6259 0.65625,-1.3867 0.65625,-2.3437 0,-0.8829 -0.189,-1.6186 -0.59375,-2.2813 -0.40487,-0.6254 -0.9365,-1.1117 -1.5625,-1.4062 -0.662,-0.25725 -1.79775,-0.40625 -3.34375,-0.40625 l -2.84375,0 z m 2.65625,2.62505 0.75,0 c 0.69925,0 1.206,0.077 1.5,0.1874 0.25775,0.074 0.478,0.2482 0.625,0.4688 0.1835,0.2207 0.25,0.4815 0.25,0.8125 0,0.5151 -0.17437,0.873 -0.46875,1.0937 -0.33113,0.2213 -0.92912,0.3438 -1.8125,0.3438 l -0.84375,0 0,-2.9062 z"
         transform="matrix(0.8,0,0,-0.8,0,842)"
         id="path5031"
         style="fill:#fe0009;fill-opacity:1;fill-rule:evenodd;stroke:none" /><path
         d="m 77.3902,31.6133 2.11914,0 0,11.3043 -2.11914,0 0,-11.3043 z"
         id="path5035"
         style="fill:#fe0009;fill-opacity:1;fill-rule:evenodd;stroke:none" /><path
         d="m 70.0012,42.9176 6.2406,0 0,-2.1196 -2.0605,0 0,-9.1847 -2.1786,0 0,9.1847 -2.0015,0 0,2.1196"
         id="path5037"
         style="fill:#fe0009;fill-opacity:1;fill-rule:evenodd;stroke:none" /><path
         d="m 123.8125,1018.4688 -4.125,6.0624 0,1.6563 4.15625,0 0,1.9687 1.75,0 0,-1.9687 0.84375,0 0,-1.6563 -0.84375,0 0,-6.0624 -1.78125,0 z m 0.0312,2.9062 0,3.1562 -2.15625,0 2.15625,-3.1562 z"
         transform="matrix(0.8,0,0,-0.8,0,842)"
         id="path5039"
         style="fill:#fe0009;fill-opacity:1;fill-rule:evenodd;stroke:none" /><path
         d="m 116.09375,1018.4688 c -0.8095,0 -1.51075,0.2915 -2.0625,0.8437 -0.58887,0.5884 -0.875,1.2843 -0.875,2.0937 0,0.8463 0.2915,1.5733 0.84375,2.125 0.55175,0.5889 1.19637,0.875 1.96875,0.875 l -1.875,3.75 1.96875,0 2.28125,-4.5312 c 0.331,-0.5884 0.51413,-1.0494 0.625,-1.3438 0.0733,-0.2944 0.0937,-0.5805 0.0937,-0.875 0,-0.7723 -0.25437,-1.4736 -0.84375,-2.0624 -0.55175,-0.5889 -1.24163,-0.875 -2.125,-0.875 z m 0.0312,1.6874 c 0.3315,0 0.58638,0.1172 0.84375,0.375 0.22062,0.2202 0.375,0.5382 0.375,0.9063 0,0.3681 -0.11725,0.6855 -0.375,0.9063 -0.22075,0.2577 -0.4815,0.3437 -0.8125,0.3437 -0.36812,0 -0.65387,-0.086 -0.875,-0.3437 -0.25737,-0.2208 -0.375,-0.5382 -0.375,-0.9063 0,-0.3681 0.11763,-0.6861 0.375,-0.9063 0.22113,-0.2578 0.51275,-0.375 0.84375,-0.375 z"
         transform="matrix(0.8,0,0,-0.8,0,842)"
         id="path5043"
         style="fill:#fe0009;fill-opacity:1;fill-rule:evenodd;stroke:none" /><path
         d="m 86.8984,27.227 2.1493,0 0,-7.7426 -1.4129,0 0,6.3883 -1.5602,0 0.8238,1.3543"
         id="path5047"
         style="fill:#fe0009;fill-opacity:1;fill-rule:evenodd;stroke:none" /><path
         d="M 130.53125,1018.4688 128.1875,1023 c -0.29375,0.5884 -0.48875,1.0181 -0.5625,1.3125 -0.11,0.2945 -0.15625,0.581 -0.15625,0.875 0,0.7729 0.2925,1.4736 0.84375,2.0625 0.58875,0.5889 1.27875,0.9062 2.125,0.9062 0.81,0 1.505,-0.292 2.09375,-0.8437 0.55125,-0.5889 0.84375,-1.315 0.84375,-2.125 0,-0.8463 -0.255,-1.5728 -0.84375,-2.125 -0.5525,-0.5884 -1.15875,-0.8437 -1.96875,-0.8437 l 1.875,-3.75 -1.90625,0 z m -0.125,5.4374 c 0.36875,0 0.6175,0.1178 0.875,0.375 0.22125,0.2213 0.34375,0.5068 0.34375,0.875 0,0.3682 -0.1225,0.7168 -0.34375,0.9376 -0.2575,0.2577 -0.54375,0.3437 -0.875,0.3437 -0.29375,0 -0.5925,-0.086 -0.8125,-0.3437 -0.2575,-0.2208 -0.375,-0.5694 -0.375,-0.9376 0,-0.3682 0.12375,-0.6537 0.34375,-0.875 0.22125,-0.2572 0.5125,-0.375 0.84375,-0.375 z"
         transform="matrix(0.8,0,0,-0.8,0,842)"
         id="path5049"
         style="fill:#fe0009;fill-opacity:1;fill-rule:evenodd;stroke:none" /><path
         d="m 153.224,157.963 3.23828,0 0,19.5473 -3.23828,0 0,-19.5473 z"
         id="path5053"
         style="fill:#fe0009;fill-opacity:1;fill-rule:evenodd;stroke:none" /><path
         d="m 138.77,177.511 3.12,0 7.36,-12.865 0,12.865 3.238,0 0,-19.548 -3.121,0 -7.33,12.836 0,-12.836 -3.267,0 0,19.548"
         id="path5055"
         style="fill:#fe0009;fill-opacity:1;fill-rule:evenodd;stroke:none" /><path
         d="m 160.6875,830.625 -8.25,24.40625 4.25,0 1.75,-5.03125 8.71875,0 1.65625,5.03125 4.25,0 -8.21875,-24.40625 -4.15625,0 z m 2.09375,6.46875 2.84375,8.375 -5.65625,0 2.8125,-8.375 z"
         transform="matrix(0.8,0,0,-0.8,0,842)"
         id="path5057"
         style="fill:#fe0009;fill-opacity:1;fill-rule:evenodd;stroke:none" /><path
         d="m 111.509,177.511 10.598,0 -6.123,-15.986 5.711,0 0,-3.562 -10.451,0 6.094,15.868 -5.829,0 0,3.68"
         id="path5059"
         style="fill:#fe0009;fill-opacity:1;fill-rule:evenodd;stroke:none" /><path
         d="m 107.653,157.963 3.20859,0 0,19.5473 -3.20859,0 0,-19.5473 z"
         id="path5061"
         style="fill:#fe0009;fill-opacity:1;fill-rule:evenodd;stroke:none" /><path
         d="m 97.791,177.54 9.479,0 0,-3.68 -3.12,0 0,-15.867 -3.298,0 0,15.867 -3.061,0 0,3.68"
         id="path5063"
         style="fill:#fe0009;fill-opacity:1;fill-rule:evenodd;stroke:none" /><path
         d="m 109.0625,830.625 0,24.40625 4.09375,0 0,-10.3125 0.375,0 4.8125,10.3125 4.4375,0 L 117.75,844.1875 c 1.32475,-0.55125 2.36862,-1.365 3.03125,-2.46875 0.69875,-1.0675 1.03125,-2.4175 1.03125,-4 0,-1.545 -0.31163,-2.86375 -0.9375,-3.96875 -0.6255,-1.1025 -1.44438,-1.9275 -2.4375,-2.40625 -0.99363,-0.47875 -2.67625,-0.71875 -5.03125,-0.71875 l -4.34375,0 z m 4.09375,4.5625 1.09375,0 c 1.1045,0 1.84525,0.0662 2.25,0.25 0.40487,0.18375 0.74263,0.43875 1,0.84375 0.22062,0.3675 0.375,0.85375 0.375,1.40625 0,0.8825 -0.2715,1.50125 -0.75,1.90625 -0.51562,0.36875 -1.39937,0.59375 -2.6875,0.59375 l -1.28125,0 0,-5 z"
         transform="matrix(0.8,0,0,-0.8,0,842)"
         id="path5065"
         style="fill:#fe0009;fill-opacity:1;fill-rule:evenodd;stroke:none" /><path
         d="m 96.21875,830.625 -8.25,24.40625 4.25,0 L 93.9375,850 l 8.71875,0 1.6875,5.03125 4.25,0 -8.25,-24.40625 -4.125,0 z m 2.09375,6.46875 2.84375,8.375 -5.71875,0 2.875,-8.375 z"
         transform="matrix(0.8,0,0,-0.8,0,842)"
         id="path5067"
         style="fill:#fe0009;fill-opacity:1;fill-rule:evenodd;stroke:none" /><path
         d="m 79.625,830.625 0,24.40625 4.09375,0 0,-10.3125 c 2.061,0 3.4775,-0.15 4.25,-0.40625 1.361375,-0.4425 2.445875,-1.235 3.21875,-2.375 0.7725,-1.105 1.15625,-2.52625 1.15625,-4.21875 0,-1.545 -0.317375,-2.86375 -0.90625,-3.96875 C 90.848625,832.6475 90.03075,831.85875 89,831.34375 87.96975,830.865 86.293,830.625 83.9375,830.625 l -4.3125,0 z m 4.09375,4.5625 1.125,0 c 1.2505,0 2.151875,0.13625 2.59375,0.46875 0.662125,0.44125 0.96875,1.105 0.96875,2.0625 0,0.55125 -0.123125,0.97625 -0.34375,1.34375 -0.22075,0.405 -0.56925,0.66 -0.9375,0.84375 -0.40475,0.1475 -1.09475,0.28125 -2.125,0.28125 l -1.28125,0 0,-5 z"
         transform="matrix(0.8,0,0,-0.8,0,842)"
         id="path5069"
         style="fill:#fe0009;fill-opacity:1;fill-rule:evenodd;stroke:none" /><path
         d="m 45.5965,177.511 3.2973,0 0,-6.712 4.6511,6.712 3.9153,0 -5.9758,-8.714 6.5644,-10.834 -3.8859,0 -5.2691,8.685 0,-8.685 -3.2973,0 0,19.548"
         id="path5071"
         style="fill:#fe0009;fill-opacity:1;fill-rule:evenodd;stroke:none" /><path
         d="m 36.2941,177.511 8.4782,0 0,-3.622 -5.27,0 0,-3.532 5.27,0 0,-3.592 -5.27,0 0,-8.802 -3.2082,0 0,19.548"
         id="path5073"
         style="fill:#fe0009;fill-opacity:1;fill-rule:evenodd;stroke:none" /></g></g></svg>