<?xml version="1.0" encoding="UTF-8" standalone="no"?>
<!-- Created with Inkscape (http://www.inkscape.org/) -->

<svg
   xmlns:dc="http://purl.org/dc/elements/1.1/"
   xmlns:cc="http://creativecommons.org/ns#"
   xmlns:rdf="http://www.w3.org/1999/02/22-rdf-syntax-ns#"
   xmlns:svg="http://www.w3.org/2000/svg"
   xmlns="http://www.w3.org/2000/svg"
   xmlns:sodipodi="http://sodipodi.sourceforge.net/DTD/sodipodi-0.dtd"
   xmlns:inkscape="http://www.inkscape.org/namespaces/inkscape"
   width="605.94049"
   height="685.96875"
   id="svg4839"
   version="1.1"
   inkscape:version="0.48.0 r9654"
   sodipodi:docname="Neues Dokument 5">
  <defs
     id="defs4841" />
  <sodipodi:namedview
     id="base"
     pagecolor="#ffffff"
     bordercolor="#666666"
     borderopacity="1.0"
     inkscape:pageopacity="0.0"
     inkscape:pageshadow="2"
     inkscape:zoom="0.80815885"
     inkscape:cx="302.97025"
     inkscape:cy="342.98438"
     inkscape:document-units="px"
     inkscape:current-layer="layer1"
     showgrid="false"
     fit-margin-top="5"
     fit-margin-left="5"
     fit-margin-right="5"
     fit-margin-bottom="5"
     inkscape:window-width="1280"
     inkscape:window-height="1005"
     inkscape:window-x="-4"
     inkscape:window-y="-4"
     inkscape:window-maximized="1" />
  <metadata
     id="metadata4844">
    <rdf:RDF>
      <cc:Work
         rdf:about="">
        <dc:format>image/svg+xml</dc:format>
        <dc:type
           rdf:resource="http://purl.org/dc/dcmitype/StillImage" />
        <dc:title></dc:title>
      </cc:Work>
    </rdf:RDF>
  </metadata>
  <g
     inkscape:label="Ebene 1"
     inkscape:groupmode="layer"
     id="layer1"
     transform="translate(-74.177911,-175.16646)">
    <g
       id="g4716"
       transform="translate(-28.42176,-154.11479)">
      <g
         id="g4594">
        <path
           id="path4592"
           style="fill:#ca8000;fill-opacity:1;fill-rule:evenodd;stroke:#ca8000;stroke-width:56.09999847;stroke-miterlimit:4;stroke-opacity:1;stroke-dasharray:none"
           d="m 675.42051,473.58503 c 0.42556,23.56784 -1.23316,47.28966 -3.63013,70.72349 -2.54634,24.87565 -5.9778,49.93998 -11.70281,74.29958 -36.63317,155.88061 -118.07426,271.99758 -253.52886,357.74956 0,0 -1.04739,0.6642 -1.04739,0.6642 0,0 -1.04681,-0.66661 -1.04681,-0.66661 C 268.70959,890.03199 185.4557,772.11171 149.83707,615.1619 139.38101,569.0866 135.28534,520.85705 135.66622,473.65614 c 0,0 0.0173,-2.13541 0.0173,-2.13541 0,0 2.12482,0.20572 2.12482,0.20572 97.79512,9.44629 197.09138,-28.53697 266.61289,-97.33781 0,0 1.32783,-1.31371 1.32783,-1.31371 0,0 1.37308,1.26668 1.37308,1.26668 74.87797,69.12413 163.37488,106.47083 266.17023,97.33194 0,0 2.09015,-0.18574 2.09015,-0.18574 0,0 0.0376,2.09722 0.0376,2.09722 0,0 0,0 0,0 z"
           inkscape:connector-curvature="0" />
        <path
           inkscape:connector-curvature="0"
           d="m 675.42051,473.58503 c 0.42556,23.56784 -1.23316,47.28966 -3.63013,70.72349 -2.54634,24.87565 -5.9778,49.93998 -11.70281,74.29958 -36.63317,155.88061 -118.07426,271.99758 -253.52886,357.74956 0,0 -1.04739,0.6642 -1.04739,0.6642 0,0 -1.04681,-0.66661 -1.04681,-0.66661 C 268.70959,890.03199 185.4557,772.11171 149.83707,615.1619 139.38101,569.0866 135.28534,520.85705 135.66622,473.65614 c 0,0 0.0173,-2.13541 0.0173,-2.13541 0,0 2.12482,0.20572 2.12482,0.20572 97.79512,9.44629 197.09138,-28.53697 266.61289,-97.33781 0,0 1.32783,-1.31371 1.32783,-1.31371 0,0 1.37308,1.26668 1.37308,1.26668 74.87797,69.12413 163.37488,106.47083 266.17023,97.33194 0,0 2.09015,-0.18574 2.09015,-0.18574 0,0 0.0376,2.09722 0.0376,2.09722 0,0 0,0 0,0 z"
           style="fill:#1c097d;fill-opacity:1;fill-rule:evenodd;stroke:#1c097d;stroke-width:27.70000076;stroke-miterlimit:4;stroke-opacity:1;stroke-dasharray:none"
           id="path4590" />
        <path
           id="path2998"
           style="fill:#ffffff;fill-opacity:1;fill-rule:evenodd;stroke:none"
           d="m 675.42051,473.58503 c 0.42556,23.56784 -1.23316,47.28966 -3.63013,70.72349 -2.54634,24.87565 -5.9778,49.93998 -11.70281,74.29958 -36.63317,155.88061 -118.07426,271.99758 -253.52886,357.74956 0,0 -1.04739,0.6642 -1.04739,0.6642 0,0 -1.04681,-0.66661 -1.04681,-0.66661 C 268.70959,890.03199 185.4557,772.11171 149.83707,615.1619 139.38101,569.0866 135.28534,520.85705 135.66622,473.65614 c 0,0 0.0173,-2.13541 0.0173,-2.13541 0,0 2.12482,0.20572 2.12482,0.20572 97.79512,9.44629 197.09138,-28.53697 266.61289,-97.33781 0,0 1.32783,-1.31371 1.32783,-1.31371 0,0 1.37308,1.26668 1.37308,1.26668 74.87797,69.12413 163.37488,106.47083 266.17023,97.33194 0,0 2.09015,-0.18574 2.09015,-0.18574 0,0 0.0376,2.09722 0.0376,2.09722 0,0 0,0 0,0 z"
           inkscape:connector-curvature="0" />
      </g>
      <g
         transform="translate(0.79028947,4.2697915)"
         id="g4569">
        <path
           sodipodi:type="arc"
           style="fill:#ca8000;fill-opacity:1;stroke:#1c097d;stroke-width:5.96307707;stroke-linecap:square;stroke-linejoin:round;stroke-miterlimit:4;stroke-opacity:1;stroke-dasharray:none;stroke-dashoffset:0"
           id="path4563"
           sodipodi:cx="267.65216"
           sodipodi:cy="555.65216"
           sodipodi:rx="133.04347"
           sodipodi:ry="133.04347"
           d="m 400.69563,555.65216 c 0,73.47788 -59.56559,133.04347 -133.04347,133.04347 -73.47788,0 -133.04347,-59.56559 -133.04347,-133.04347 0,-73.47788 59.56559,-133.04347 133.04347,-133.04347 73.47788,0 133.04347,59.56559 133.04347,133.04347 z"
           transform="matrix(0.95588235,0,0,0.95588235,151.50385,138.91978)" />
        <path
           sodipodi:type="arc"
           style="fill:#ffffff;fill-opacity:1;fill-rule:nonzero;stroke:none"
           id="path4565"
           sodipodi:cx="417.13043"
           sodipodi:cy="532.17389"
           sodipodi:rx="82.95652"
           sodipodi:ry="82.95652"
           d="m 500.08695,532.17389 c 0,45.81562 -37.1409,82.95652 -82.95652,82.95652 -45.81562,0 -82.95652,-37.1409 -82.95652,-82.95652 0,-45.81562 37.1409,-82.95652 82.95652,-82.95652 45.81562,0 82.95652,37.1409 82.95652,82.95652 z"
           transform="matrix(1.0471698,0,0,1.0471698,-29.458573,112.39013)" />
        <path
           inkscape:connector-curvature="0"
           style="fill:#1c097d;fill-opacity:1;stroke:none"
           d="m 407.28125,426.84375 c -50.12294,0 -90.75,40.62706 -90.75,90.75 0,50.12294 40.62706,90.78125 90.75,90.78125 50.12294,0 90.78125,-40.65831 90.78125,-90.78125 0,-50.12294 -40.65831,-90.75 -90.78125,-90.75 z m 0,6.65625 c 46.45541,0 84.125,37.63834 84.125,84.09375 0,46.45541 -37.66959,84.125 -84.125,84.125 -46.45541,0 -84.09375,-37.66959 -84.09375,-84.125 0,-46.45541 37.63834,-84.09375 84.09375,-84.09375 z m 0.15625,3.03125 c -44.85909,0 -81.21875,36.35966 -81.21875,81.21875 0,44.85909 36.35966,81.21875 81.21875,81.21875 44.85909,0 81.21875,-36.35966 81.21875,-81.21875 0,-44.85909 -36.35966,-81.21875 -81.21875,-81.21875 z m 27.65625,8.59375 c 17.74508,6.76635 32.36494,19.84645 41.125,36.5 l -8.375,6.625 c -1.95043,-1.70581 -5.55593,-4.72478 -9.90625,-7.71875 -4.07315,-2.80321 -12.57728,-6.59816 -14.1875,-7.3125 l -15.5,-23.125 6.84375,-4.96875 z m -55.53125,0.0625 6.75,4.90625 -15.5,23.125 c -1.6662,0.73651 -10.10046,4.52124 -14.15625,7.3125 -4.36892,3.00677 -7.96705,6.05102 -9.90625,7.75 l -8.1875,-6.5 c 8.72253,-16.65781 23.29262,-29.784 41,-36.59375 z m 27.65625,4.4375 c 6.01219,0 12.22835,0.36964 16.21875,0.65625 l 17.03125,25.375 c -2.34745,2.39399 -5.50092,5.61944 -7.3125,7.90625 -3.93017,4.96117 -6.38603,8.20111 -8.0625,10.40625 -2.38938,-0.15985 -10.62665,-0.70795 -17.78125,-0.75 -7.31625,-0.043 -15.91057,0.39216 -18,0.5 -1.71303,-2.2483 -4.1752,-5.48588 -7.875,-10.15625 -1.81158,-2.28681 -4.96275,-5.52047 -7.3125,-7.90625 l 17,-25.375 c 3.95379,-0.28628 10.10466,-0.65625 16.09375,-0.65625 z m 70.84375,35.78125 c 4.51699,9.85328 7.0625,20.79589 7.0625,32.34375 0,9.44701 -1.69509,18.50111 -4.78125,26.875 -0.18869,-0.50258 -2.20582,-5.85533 -4.6875,-12.0625 -1.5423,-3.85758 -4.50036,-8.36522 -6.25,-10.90625 l 0,-29.40625 8.65625,-6.84375 z m -141.34375,0.125 8.46875,6.71875 0,29.40625 c -1.74964,2.54103 -4.7077,7.04867 -6.25,10.90625 -2.37274,5.93469 -4.22218,10.84504 -4.5625,11.75 -3.01503,-8.28564 -4.65625,-17.23396 -4.65625,-26.5625 0,-11.49826 2.51623,-22.39833 7,-32.21875 z m 70.5625,11.78125 c 6.37661,0.0375 13.40546,0.4799 16.59375,0.6875 1.22397,1.81899 5.75316,8.57042 8.59375,12.6875 2.75529,3.99345 7.04665,11.67566 7.875,13.15625 -1.8597,4.32963 -5.56546,12.63804 -8.28125,16.65625 -2.79526,4.13578 -8.82283,10.49133 -12.15625,13.90625 l -12.625,0.0625 -12.625,-0.0625 c -3.32428,-3.41492 -9.32974,-9.77047 -12.125,-13.90625 -2.71579,-4.01821 -6.42155,-12.32662 -8.28125,-16.65625 0.8281,-1.48262 5.11971,-9.1628 7.875,-13.15625 2.92082,-4.23337 7.75561,-11.41297 8.78125,-12.9375 3.28312,-0.16046 10.09426,-0.47441 16.375,-0.4375 z m -58.78125,26.75 21.65625,0.65625 c 1.23017,3.00872 5.24239,12.58034 8.96875,18.09375 3.7347,5.52574 10.59378,12.51333 13.09375,15 L 384.25,573.15625 c -1.69862,0.0566 -9.06945,0.31859 -13.34375,0.1875 -6.94631,-0.21303 -13.12573,-0.83441 -13.84375,-0.90625 -0.88653,-0.98523 -8.85398,-9.83808 -11.625,-13.84375 -3.12037,-4.51067 -6.59384,-11.81235 -7.15625,-13 0.26394,-0.69949 2.05735,-5.46859 4.46875,-11.5 1.36813,-3.42197 4.26128,-7.84924 5.75,-10.03125 z m 117.5625,0 c 1.49481,2.1804 4.41256,6.6079 5.78125,10.03125 2.4114,6.03141 4.20481,10.80051 4.46875,11.5 -0.56241,1.18765 -4.06713,8.48933 -7.1875,13 -2.77145,4.00629 -10.74065,12.86094 -11.625,13.84375 -0.71802,0.0718 -6.89744,0.69322 -13.84375,0.90625 -4.27359,0.13107 -11.61395,-0.13084 -13.3125,-0.1875 L 422.3125,557.8125 c 2.47832,-2.46436 9.37798,-9.45602 13.125,-15 3.72683,-5.51411 7.76631,-15.08663 9,-18.09375 l 21.625,-0.65625 z M 458.21875,576.5 c -13.14175,11.36697 -30.12136,18.42712 -48.75,18.90625 l -0.125,-5.53125 c 2.4573,-0.83021 6.8751,-2.49844 12,-5.3125 4.2283,-2.32175 7.35389,-5.43482 9,-7.28125 2.22505,0.071 9.04988,0.29082 13.4375,0.15625 7.128,-0.2186 13.70622,-0.86606 14.4375,-0.9375 z m -101.53125,0.0312 c 1.13004,0.10938 7.22316,0.69554 14.09375,0.90625 4.38762,0.13457 11.23701,-0.0852 13.46875,-0.15625 1.64611,1.84643 4.7717,4.9595 9,7.28125 5.23971,2.8771 9.58953,4.50311 12,5.3125 l -0.125,5.53125 c -18.499,-0.54161 -35.361,-7.58675 -48.4375,-18.875 z"
           transform="translate(0,152.36224)"
           id="path3689" />
        <path
           inkscape:connector-curvature="0"
           d="m 508.35771,578.64563 c -3.62894,-3.31252 -5.8968,-7.17467 -8.72478,-10.98625 -2.01427,-2.71516 -2.5046,-2.55287 -5.84154,-2.52205 -2.22598,0.0215 -4.29609,0.25011 -6.31442,1.26509 -0.99404,0.49965 -2.18643,2.12421 -3.29622,3.58939 -6.39004,8.43802 -8.48922,17.04007 -11.72204,27.58834 0.26058,8.09719 1.70715,12.43573 4.3368,17.1698 0,0 9.07202,-11.35734 9.07202,-11.35734 2.03289,-2.54473 2.18353,-1.84791 -0.25765,-4.02446 -1.30349,-1.16098 -2.41852,-2.28007 -3.26308,-3.76329 -1.56289,-2.74714 -0.99986,-3.55622 0.10757,-6.26032 2.12768,-5.19474 2.60754,-7.98085 5.8805,-13.18024 1.90549,-3.02692 3.90929,0.51709 4.85098,2.64303 2.91233,6.575 1.79846,12.43689 7.50332,23.02587 -1.30058,9.396 -1.32093,21.92363 1.43028,31.15619 5.36341,17.99749 24.10425,29.85331 24.9773,37.1798 1.10689,9.28782 -11.18808,15.30676 -11.0572,23.87566 0.19718,12.83124 11.29044,30.11912 11.25497,43.5925 -0.004,1.34828 -2.2446,2.24169 -3.7185,3.00017 -9.69905,4.99407 -21.0023,10.82455 -32.03334,21.60489 -0.97077,1.81824 -1.00393,7.34627 -0.74102,11.29219 2.87511,-0.65494 8.46595,-2.94082 12.62418,-5.52337 1.77753,-1.32848 0,-4.73465 0,-7.10196 0.11925,-0.33388 0.58746,-0.36877 1.06036,-0.45137 8.51131,-8.68291 20.13273,-15.38004 34.18543,-16.20018 0.8341,-0.0476 1.60129,-0.74102 1.64318,-2.28937 0.16927,-6.31443 -0.85678,-11.04211 -0.59329,-17.35418 1.05104,-1.5821 1.83977,-0.99115 2.36673,0.59095 2.87686,8.36881 5.63332,12.89407 8.73876,17.51471 2.66687,3.9692 2.67502,4.95685 2.625,9.77525 -0.0618,5.97473 -0.26524,12.32056 -2.24519,17.15526 -1.20576,2.94315 -0.9859,7.66616 -2.93152,10.05559 -4.28271,5.25582 -11.05896,6.11783 -14.02945,13.90149 -0.24721,0.67938 2.78727,1.29476 8.34438,0.93646 1.92992,-0.12447 6.55231,-0.57234 7.19155,-1.18657 1.14701,-1.70307 0.70263,-4.53921 1.67633,-6.85069 1.25112,-2.97342 2.96002,-5.30817 4.85853,-6.75532 1.98111,-1.51113 2.6058,-1.5565 2.35453,-4.08669 -0.68344,-6.87862 -1.01789,-17.69966 3.86217,-28.71384 1.4332,-3.23515 1.57337,-4.64856 -0.64912,-7.4754 -4.23153,-5.38493 -7.12408,-10.61166 -7.37361,-17.62289 -0.29606,-8.3025 10.86526,-13.17908 15.70403,-19.81805 3.31018,-4.54155 4.06458,-6.09106 4.8184,-12.92664 1.99856,-0.2443 3.40674,-0.48627 4.22105,1.23659 1.52567,3.22235 -1.71994,8.56424 1.13714,10.86526 2.15967,1.73914 5.52918,3.10718 8.08322,4.38566 1.82406,0.91435 1.54603,2.76401 1.00218,4.4764 -1.89154,5.95612 -9.84388,6.52381 -10.77394,10.40925 -0.86725,3.62253 3.33462,6.13992 3.88311,7.68129 1.77462,4.97662 -5.36981,5.01734 -4.95102,10.81291 0.35074,4.8661 5.19589,6.79254 12.10127,6.98448 3.70745,0.10233 6.42959,1.79498 6.79021,1.92876 0.34899,-1.23775 -1.88456,-4.04596 -4.78816,-5.37213 -3.73189,-1.70425 -8.51596,-1.97995 -8.83647,-4.22396 -0.80558,-5.62923 7.15899,-6.13062 7.07814,-8.5154 -0.089,-2.61278 -2.51275,-3.88194 -1.97238,-4.64855 4.2257,-2.37664 3.39045,-3.4969 3.59053,-5.87354 0.12331,-1.46343 3.98838,-0.25126 4.98941,-1.16097 1.36165,-1.23659 0.31933,-6.15621 2.56742,-6.29696 0.50486,-0.0314 1.22845,0.26174 1.85546,0.80617 1.04581,0.90738 2.00147,2.3394 2.52263,2.83962 -0.15298,-1.51345 -0.63749,-2.19516 -0.99171,-2.92687 -0.95973,-1.97762 -4.00818,-4.14253 -3.74177,-5.19648 1.10455,-4.36821 8.27109,-5.23371 8.24608,-10.28361 -0.0238,-4.74047 -6.70354,-4.73466 -6.59128,-7.90699 0.043,-1.20519 3.99594,-2.21376 3.97908,-3.41778 -0.01,-0.64098 -3.16943,-2.07301 -4.74512,-2.12303 -2.11315,-0.74568 -5.90552,1.19587 -10.05444,2.25215 -1.88455,0.47929 -3.52075,0.34085 -4.28213,-0.39203 -0.46531,-0.44787 -0.29257,-2.12419 1.33781,-3.4236 2.09628,-1.66935 6.16551,-1.48788 4.11809,-2.97457 -1.68969,-1.22613 -4.54735,-1.44948 -7.12059,-0.35482 -3.31075,1.40644 -5.68622,4.58459 -7.67141,3.70746 -4.17626,-31.20389 -18.22955,-38.13952 -21.20413,-43.19989 0.27513,-3.79645 0.90214,-4.89926 1.35642,-7.68363 0.35307,-2.16665 0.98241,-4.17394 0.91261,-5.72695 -0.0791,-1.74612 -1.60128,-3.56727 -3.16535,-5.54896 -1.56407,-1.98169 -3.17291,-4.12624 -4.21349,-5.72521 -1.16098,-1.78218 -0.54792,-5.18193 2.91582,-4.20417 2.35162,0.66366 5.3355,2.88266 8.23794,4.59155 3.59404,2.11547 7.80694,2.54183 10.92226,0.82246 -7.77959,-1.49484 -14.65647,-6.34175 -12.0338,-10.75357 2.16666,-3.64348 9.99686,-0.13612 13.02029,4.34668 0.41007,-4.65904 -4.12449,-7.7924 -7.07231,-9.65602 -2.07301,-1.30929 -0.66366,-4.64972 2.10908,-4.75733 2.80936,-0.10995 5.32153,2.60172 10.01778,3.25841 4.14487,0.57992 12.1007,-1.26917 14.57214,0.99929 0.12971,-0.7765 -0.32572,-2.8914 -2.83846,-4.26817 -2.73203,-1.49834 -7.81566,-0.72182 -10.87923,-1.90316 -2.08695,-0.80443 -3.50851,-2.6343 -2.67211,-4.29318 0.72068,-1.42854 3.05658,-3.0595 5.07317,-2.89314 8.48398,0.70147 11.14214,-0.70089 12.89407,-3.31773 -4.83586,1.10396 -8.95627,0.27918 -10.94088,-0.84574 -2.89895,-1.64316 -2.7291,-4.71952 -2.23121,-5.64376 1.94854,-3.61382 4.73231,-3.06299 6.45983,-4.9359 1.62106,-1.75659 3.64695,-3.49282 5.24359,-4.21583 1.28952,-0.58397 -1.06268,3.75632 -0.5043,8.59624 0.36703,3.17873 2.41909,4.23967 3.07404,4.52991 3.50679,1.55709 9.01212,-0.1489 8.85973,-10.10679 -2.26903,5.91018 -6.2074,9.12148 -7.71621,5.71474 -1.41283,-3.19037 7.88605,-15.73777 -0.16518,-17.92652 -5.95787,-1.61933 -7.9826,9.04469 -12.20132,6.06663 -0.52988,-0.37459 -1.45064,-0.83642 2.24867,-3.01354 4.30597,-2.53426 2.49761,-6.95366 3.34566,-9.39485 1.67864,-4.8347 7.82788,-5.55478 11.43121,1.39887 0.10936,-5.77929 -3.5917,-11.20494 -11.79183,-9.01212 0.80733,-4.01456 0.20358,-8.99525 -2.34813,-13.87996 -0.41589,-3.57076 -2.08348,-6.76113 -5.19241,-9.26862 2.47376,3.86681 3.63416,6.78263 3.33811,9.2913 -0.0519,0.43509 -1.13772,0.62121 -2.91117,2.29579 -1.98403,-0.46009 -4.46128,-0.57817 -5.72696,-0.82014 -0.36934,-2.54473 -0.14018,-8.5055 -4.26409,-9.29306 -4.007,-0.7637 -7.59696,3.28692 -10.35748,6.31442 -2.01311,0.28792 -5.13017,-0.0151 -7.31952,0.27164 -7.82263,1.02545 -16.1996,4.33097 -23.45512,4.6631 -3.71385,0.16985 -7.42944,-1.25113 -10.25686,-0.98474 -2.59009,0.24372 -3.71559,2.36384 -4.14078,4.93009 -0.39029,2.36267 0.33038,5.06619 0.59155,7.69642 0.23848,2.41037 2.75179,3.66674 5.12842,4.14021 2.20098,0.43914 5.03129,-0.26641 7.29916,-0.98125 5.57804,1.74378 11.11072,3.66905 17.16048,8.86554 -2.14571,3.93778 -9.95789,7.83601 -15.80233,9.72115 -5.00395,1.61467 -10.87224,2.89896 -15.75811,4.68579 -3.0915,2.03695 -4.60321,4.6666 -6.70703,7.29683 0,0 0,0 0,0 z"
           style="fill:#1c097d;fill-opacity:1;fill-rule:evenodd;stroke:none"
           id="path3671" />
        <path
           id="path4567"
           style="fill:#1c097d;fill-opacity:1;fill-rule:evenodd;stroke:none"
           d="m 306.22931,578.64563 c 3.62894,-3.31252 5.8968,-7.17467 8.72478,-10.98625 2.01427,-2.71516 2.5046,-2.55287 5.84154,-2.52205 2.22598,0.0215 4.29609,0.25011 6.31442,1.26509 0.99404,0.49965 2.18643,2.12421 3.29622,3.58939 6.39004,8.43802 8.48922,17.04007 11.72204,27.58834 -0.26058,8.09719 -1.70715,12.43573 -4.3368,17.1698 0,0 -9.07202,-11.35734 -9.07202,-11.35734 -2.03289,-2.54473 -2.18353,-1.84791 0.25765,-4.02446 1.30349,-1.16098 2.41852,-2.28007 3.26308,-3.76329 1.56289,-2.74714 0.99986,-3.55622 -0.10757,-6.26032 -2.12768,-5.19474 -2.60754,-7.98085 -5.8805,-13.18024 -1.90549,-3.02692 -3.90929,0.51709 -4.85098,2.64303 -2.91233,6.575 -1.79846,12.43689 -7.50332,23.02587 1.30058,9.396 1.32093,21.92363 -1.43028,31.15619 -5.36341,17.99749 -24.10425,29.85331 -24.9773,37.1798 -1.10689,9.28782 11.18808,15.30676 11.0572,23.87566 -0.19718,12.83124 -11.29044,30.11912 -11.25497,43.5925 0.004,1.34828 2.2446,2.24169 3.7185,3.00017 9.69905,4.99407 21.0023,10.82455 32.03334,21.60489 0.97077,1.81824 1.00393,7.34627 0.74102,11.29219 -2.87511,-0.65494 -8.46595,-2.94082 -12.62418,-5.52337 -1.77753,-1.32848 0,-4.73465 0,-7.10196 -0.11925,-0.33388 -0.58746,-0.36877 -1.06036,-0.45137 -8.51131,-8.68291 -20.13273,-15.38004 -34.18543,-16.20018 -0.8341,-0.0476 -1.60129,-0.74102 -1.64318,-2.28937 -0.16927,-6.31443 0.85678,-11.04211 0.59329,-17.35418 -1.05104,-1.5821 -1.83977,-0.99115 -2.36673,0.59095 -2.87686,8.36881 -5.63332,12.89407 -8.73876,17.51471 -2.66687,3.9692 -2.67502,4.95685 -2.625,9.77525 0.0618,5.97473 0.26524,12.32056 2.24519,17.15526 1.20576,2.94315 0.9859,7.66616 2.93152,10.05559 4.28271,5.25582 11.05896,6.11783 14.02945,13.90149 0.24721,0.67938 -2.78727,1.29476 -8.34438,0.93646 -1.92992,-0.12447 -6.55231,-0.57234 -7.19155,-1.18657 -1.14701,-1.70307 -0.70263,-4.53921 -1.67633,-6.85069 -1.25112,-2.97342 -2.96002,-5.30817 -4.85853,-6.75532 -1.98111,-1.51113 -2.6058,-1.5565 -2.35453,-4.08669 0.68344,-6.87862 1.01789,-17.69966 -3.86217,-28.71384 -1.4332,-3.23515 -1.57337,-4.64856 0.64912,-7.4754 4.23153,-5.38493 7.12408,-10.61166 7.37361,-17.62289 0.29606,-8.3025 -10.86526,-13.17908 -15.70403,-19.81805 -3.31018,-4.54155 -4.06458,-6.09106 -4.8184,-12.92664 -1.99856,-0.2443 -3.40674,-0.48627 -4.22105,1.23659 -1.52567,3.22235 1.71994,8.56424 -1.13714,10.86526 -2.15967,1.73914 -5.52918,3.10718 -8.08322,4.38566 -1.82406,0.91435 -1.54603,2.76401 -1.00218,4.4764 1.89154,5.95612 9.84388,6.52381 10.77394,10.40925 0.86725,3.62253 -3.33462,6.13992 -3.88311,7.68129 -1.77462,4.97662 5.36981,5.01734 4.95102,10.81291 -0.35074,4.8661 -5.19589,6.79254 -12.10127,6.98448 -3.70745,0.10233 -6.42959,1.79498 -6.79021,1.92876 -0.34899,-1.23775 1.88456,-4.04596 4.78816,-5.37213 3.73189,-1.70425 8.51596,-1.97995 8.83647,-4.22396 0.80558,-5.62923 -7.15899,-6.13062 -7.07814,-8.5154 0.089,-2.61278 2.51275,-3.88194 1.97238,-4.64855 -4.2257,-2.37664 -3.39045,-3.4969 -3.59053,-5.87354 -0.12331,-1.46343 -3.98838,-0.25126 -4.98941,-1.16097 -1.36165,-1.23659 -0.31933,-6.15621 -2.56742,-6.29696 -0.50486,-0.0314 -1.22845,0.26174 -1.85546,0.80617 -1.04581,0.90738 -2.00147,2.3394 -2.52263,2.83962 0.15298,-1.51345 0.63749,-2.19516 0.99171,-2.92687 0.95973,-1.97762 4.00818,-4.14253 3.74177,-5.19648 -1.10455,-4.36821 -8.27109,-5.23371 -8.24608,-10.28361 0.0238,-4.74047 6.70354,-4.73466 6.59128,-7.90699 -0.043,-1.20519 -3.99594,-2.21376 -3.97908,-3.41778 0.01,-0.64098 3.16943,-2.07301 4.74512,-2.12303 2.11315,-0.74568 5.90552,1.19587 10.05444,2.25215 1.88455,0.47929 3.52075,0.34085 4.28213,-0.39203 0.46531,-0.44787 0.29257,-2.12419 -1.33781,-3.4236 -2.09628,-1.66935 -6.16551,-1.48788 -4.11809,-2.97457 1.68969,-1.22613 4.54735,-1.44948 7.12059,-0.35482 3.31075,1.40644 5.68622,4.58459 7.67141,3.70746 4.17626,-31.20389 18.22955,-38.13952 21.20413,-43.19989 -0.27513,-3.79645 -0.90214,-4.89926 -1.35642,-7.68363 -0.35307,-2.16665 -0.98241,-4.17394 -0.91261,-5.72695 0.0791,-1.74612 1.60128,-3.56727 3.16535,-5.54896 1.56407,-1.98169 3.17291,-4.12624 4.21349,-5.72521 1.16098,-1.78218 0.54792,-5.18193 -2.91582,-4.20417 -2.35162,0.66366 -5.3355,2.88266 -8.23794,4.59155 -3.59404,2.11547 -7.80694,2.54183 -10.92226,0.82246 7.77959,-1.49484 14.65647,-6.34175 12.0338,-10.75357 -2.16666,-3.64348 -9.99686,-0.13612 -13.02029,4.34668 -0.41007,-4.65904 4.12449,-7.7924 7.07231,-9.65602 2.07301,-1.30929 0.66366,-4.64972 -2.10908,-4.75733 -2.80936,-0.10995 -5.32153,2.60172 -10.01778,3.25841 -4.14487,0.57992 -12.1007,-1.26917 -14.57214,0.99929 -0.12971,-0.7765 0.32572,-2.8914 2.83846,-4.26817 2.73203,-1.49834 7.81566,-0.72182 10.87923,-1.90316 2.08695,-0.80443 3.50851,-2.6343 2.67211,-4.29318 -0.72068,-1.42854 -3.05658,-3.0595 -5.07317,-2.89314 -8.48398,0.70147 -11.14214,-0.70089 -12.89407,-3.31773 4.83586,1.10396 8.95627,0.27918 10.94088,-0.84574 2.89895,-1.64316 2.7291,-4.71952 2.23121,-5.64376 -1.94854,-3.61382 -4.73231,-3.06299 -6.45983,-4.9359 -1.62106,-1.75659 -3.64695,-3.49282 -5.24359,-4.21583 -1.28952,-0.58397 1.06268,3.75632 0.5043,8.59624 -0.36703,3.17873 -2.41909,4.23967 -3.07404,4.52991 -3.50679,1.55709 -9.01212,-0.1489 -8.85973,-10.10679 2.26903,5.91018 6.2074,9.12148 7.71621,5.71474 1.41283,-3.19037 -7.88605,-15.73777 0.16518,-17.92652 5.95787,-1.61933 7.9826,9.04469 12.20132,6.06663 0.52988,-0.37459 1.45064,-0.83642 -2.24867,-3.01354 -4.30597,-2.53426 -2.49761,-6.95366 -3.34566,-9.39485 -1.67864,-4.8347 -7.82788,-5.55478 -11.43121,1.39887 -0.10936,-5.77929 3.5917,-11.20494 11.79183,-9.01212 -0.80733,-4.01456 -0.20358,-8.99525 2.34813,-13.87996 0.41589,-3.57076 2.08348,-6.76113 5.19241,-9.26862 -2.47376,3.86681 -3.63416,6.78263 -3.33811,9.2913 0.0519,0.43509 1.13772,0.62121 2.91117,2.29579 1.98403,-0.46009 4.46128,-0.57817 5.72696,-0.82014 0.36934,-2.54473 0.14018,-8.5055 4.26409,-9.29306 4.007,-0.7637 7.59696,3.28692 10.35748,6.31442 2.01311,0.28792 5.13017,-0.0151 7.31952,0.27164 7.82263,1.02545 16.1996,4.33097 23.45512,4.6631 3.71385,0.16985 7.42944,-1.25113 10.25686,-0.98474 2.59009,0.24372 3.71559,2.36384 4.14078,4.93009 0.39029,2.36267 -0.33038,5.06619 -0.59155,7.69642 -0.23848,2.41037 -2.75179,3.66674 -5.12842,4.14021 -2.20098,0.43914 -5.03129,-0.26641 -7.29916,-0.98125 -5.57804,1.74378 -11.11072,3.66905 -17.16048,8.86554 2.14571,3.93778 9.95789,7.83601 15.80233,9.72115 5.00395,1.61467 10.87224,2.89896 15.75811,4.68579 3.0915,2.03695 4.60321,4.6666 6.70703,7.29683 0,0 0,0 0,0 z"
           inkscape:connector-curvature="0"
           inkscape:transform-center-x="132.4586" />
        <g
           id="g3673"
           transform="matrix(0.94753583,0,0,0.94753583,-327.22813,-52.906271)"
           style="fill:#ffffff">
          <path
             inkscape:connector-curvature="0"
             d="m 849.55218,833.86777 c 0,0 4.8522,-6.63207 4.8522,-6.63207 -0.067,0.89111 0.6836,1.78344 1.4136,2.31689 0,0 4.7168,3.45092 4.7168,3.45092 0,0 6.1011,-8.3374 6.1011,-8.3374 0,0 -4.6753,-3.42041 -4.6753,-3.42041 -0.7385,-0.54076 -1.7688,-1.0913 -2.6477,-0.71778 0,0 4.8535,-6.6333 4.8535,-6.6333 -0.068,0.89112 0.6824,1.78345 1.4124,2.3169 0,0 13.3361,9.75708 13.3361,9.75708 0.719,0.52735 1.5711,0.88257 2.5892,0.6775 0,0 -4.8365,6.6101 -4.8365,6.6101 -0.05,-1.03028 -0.6909,-1.75538 -1.4135,-2.28394 0,0 -6.3672,-4.65942 -6.3672,-4.65942 0,0 -6.1011,8.33862 -6.1011,8.33862 0,0 6.3672,4.65821 6.3672,4.65821 0.7202,0.52612 1.5722,0.88257 2.5903,0.67627 0,0 -4.8364,6.61132 -4.8364,6.61132 -0.05,-1.03027 -0.6909,-1.75536 -1.4136,-2.28515 0,0 -13.2934,-9.72656 -13.2934,-9.72656 -0.7386,-0.53955 -1.7688,-1.09009 -2.6477,-0.71778 0,0 0,0 0,0 z"
             style="fill:#ffffff;fill-opacity:1;fill-rule:evenodd;stroke:none"
             id="path3190" />
          <path
             inkscape:connector-curvature="0"
             d="m 703.46998,854.94444 c 0,0 2.3895,-9.01857 2.3895,-9.01857 0,0 -8.46739,3.91724 -8.46739,3.91724 0,0 6.07789,5.10133 6.07789,5.10133 0,0 0,0 0,0 z m 3.8916,-15.01465 c 0,0 4.1425,3.47656 4.1425,3.47656 0,0 -4.7089,20.896 -4.7089,20.896 -0.2234,0.98999 -0.2686,2.17895 0.1953,3.4143 0,0 -6.27441,-5.26611 -6.27441,-5.26611 0.75134,-0.28443 1.07116,-1.156 1.33056,-2.13379 0,0 0.63112,-2.38159 0.63112,-2.38159 0,0 -8.09388,-6.79321 -8.09388,-6.79321 0,0 -2.23694,1.03392 -2.23694,1.03392 -0.91736,0.42482 -1.71997,0.89234 -1.87012,1.68092 0,0 -6.27442,-5.26734 -6.27442,-5.26734 1.29762,0.24292 2.45851,-0.007 3.39662,-0.39916 0,0 19.76257,-8.2605 19.76257,-8.2605 0,0 0,0 0,0 z"
             style="fill:#ffffff;fill-opacity:1;fill-rule:evenodd;stroke:none"
             id="path3192" />
          <path
             inkscape:connector-curvature="0"
             d="m 759.37998,878.49424 c 0,0 -2.5024,-8.98682 -2.5024,-8.98682 0,0 -5.3217,7.66235 -5.3217,7.66235 0,0 7.8241,1.32447 7.8241,1.32447 0,0 0,0 0,0 z m -4.2413,-14.91822 c 0,0 5.3326,0.9021 5.3326,0.9021 0,0 6.5125,20.40528 6.5125,20.40528 0.3082,0.96801 0.871,2.01537 1.8964,2.84667 0,0 -8.0768,-1.36718 -8.0768,-1.36718 0.5041,-0.625 0.3393,-1.5393 0.068,-2.51343 0,0 -0.6616,-2.37426 -0.6616,-2.37426 0,0 -10.4187,-1.7627 -10.4187,-1.7627 0,0 -1.4056,2.02392 -1.4056,2.02392 -0.5768,0.83008 -1.0327,1.6394 -0.763,2.39503 0,0 -8.0767,-1.36719 -8.0767,-1.36719 1.242,-0.44677 2.1173,-1.25 2.7276,-2.06299 0,0 12.865,-17.12525 12.865,-17.12525 0,0 0,0 0,0 z"
             style="fill:#ffffff;fill-opacity:1;fill-rule:evenodd;stroke:none"
             id="path3194" />
          <path
             inkscape:connector-curvature="0"
             d="m 823.06658,868.95689 c 0,0 -6.9202,-6.25733 -6.9202,-6.25733 0,0 -0.4004,9.32129 -0.4004,9.32129 0,0 7.3206,-3.06396 7.3206,-3.06396 0,0 0,0 0,0 z m -11.5613,-10.34058 c 0,0 4.989,-2.0874 4.989,-2.0874 0,0 16.4136,13.7622 16.4136,13.7622 0.7776,0.65308 1.8127,1.2378 3.1237,1.3916 0,0 -7.5561,3.16285 -7.5561,3.16285 0.091,-0.79835 -0.5371,-1.48194 -1.2866,-2.16065 0,0 -1.8274,-1.65284 -1.8274,-1.65284 0,0 -9.7486,4.08082 -9.7486,4.08082 0,0 -0.1062,2.46093 -0.1062,2.46093 -0.043,1.01075 0.01,1.93848 0.6372,2.43287 0,0 -7.5562,3.16285 -7.5562,3.16285 0.8094,-1.04249 1.1194,-2.18873 1.2012,-3.20192 0,0 1.7163,-21.35131 1.7163,-21.35131 0,0 0,0 0,0 z"
             style="fill:#ffffff;fill-opacity:1;fill-rule:evenodd;stroke:none"
             id="path3196" />
          <path
             inkscape:connector-curvature="0"
             d="m 788.58408,867.42612 c 0,0 -8.0322,0.92652 -8.0322,0.92652 0,0 0.647,5.60912 0.647,5.60912 0,0 8.1872,-0.94481 8.1872,-0.94481 2.5171,-0.29054 3.4034,-1.77369 3.0689,-3.60719 -0.3345,-1.83349 -1.9348,-2.20702 -3.8709,-1.98364 0,0 0,0 0,0 z m 1.7469,8.30078 c 0,0 -8.8111,1.01685 -8.8111,1.01685 0,0 0.8509,7.36939 0.8509,7.36939 0,0 8.9148,-1.02784 8.9148,-1.02784 3.175,-0.36743 4.06,-2.8601 3.8085,-4.22608 -0.2514,-1.36473 -1.0839,-3.55712 -4.7631,-3.13232 0,0 0,0 0,0 z m -17.2419,-9.39209 c 0,0 17.2431,-2.00317 17.2431,-2.00317 6.8323,-0.79468 8.1433,2.052 8.3093,4.2566 0.1343,1.77734 -0.035,4.01488 -4.1467,5.22826 6.2304,-0.56396 6.9726,3.87696 7.0813,5.1587 0.2868,3.39233 -2.0349,5.97656 -7.6843,6.62841 0,0 -14.1578,1.6333 -14.1578,1.6333 0,0 0,-0.004 0,-0.004 0,0 -4.2028,0.48463 -4.2028,0.48463 0.722,-0.73609 0.8197,-1.69923 0.7165,-2.58911 0,0 -1.8878,-16.36353 -1.8878,-16.36353 -0.1044,-0.9082 -0.4004,-2.03857 -1.2708,-2.43042 0,0 0,0 0,0 z"
             style="fill:#ffffff;fill-opacity:1;fill-rule:evenodd;stroke:none"
             id="path3198" />
          <path
             inkscape:connector-curvature="0"
             d="m 725.31568,862.4896 c 0,0 1.7139,0.77636 1.7139,0.77636 0,0 2.9846,1.35133 2.9846,1.35133 2.3083,1.0437 3.8299,0.22705 4.4861,-1.51734 0.6561,-1.74439 -0.5249,-2.88819 -2.3004,-3.6914 0,0 -2.8418,-1.28663 -2.8418,-1.28663 0,0 -1.7139,-0.77515 -1.7139,-0.77515 0,0 -0.5243,-0.23803 -0.5243,-0.23803 0,0 -2.3285,5.14405 -2.3285,5.14405 0,0 0.5243,0.23681 0.5243,0.23681 0,0 0,0 0,0 z m 9.9963,-4.88404 c 6.2677,2.83204 5.907,5.99488 4.917,7.9712 -0.7971,1.59179 -2.0947,3.42406 -6.2445,2.35108 1.9611,0.99486 2.3157,2.30956 2.334,3.65843 0.019,1.52833 -0.487,3.00415 -0.7599,3.68532 -0.5725,1.43066 -1.6803,4.28222 -0.5011,5.92285 -0.628,-0.28932 -1.723,-0.77149 -2.4969,-1.11329 -1.7798,-0.78369 -3.0493,-1.78466 -3.2416,-3.93189 -0.1471,-1.6455 0.5127,-3.26415 0.8789,-4.2456 0.4865,-1.30005 1.5582,-3.42407 -1.8152,-4.95117 0,0 -2.5079,-1.13525 -2.5079,-1.13525 0,0 -1.7139,-0.77637 -1.7139,-0.77637 0,0 -0.5243,-0.23682 -0.5243,-0.23682 0,0 -3.0597,6.75781 -3.0597,6.75781 -0.4083,0.9021 -0.7122,1.98486 -0.2465,2.96265 0,0 -3.6213,-1.63819 -3.6213,-1.63819 0,0 0,-0.004 0,-0.004 0,0 -3.8544,-1.74437 -3.8544,-1.74437 0.9985,-0.26001 1.5772,-1.03639 1.9464,-1.85304 0,0 6.7932,-15.00487 6.7932,-15.00487 0.3772,-0.83374 0.6525,-2.09352 0.1074,-2.8772 0,0 13.6084,6.20238 13.6084,6.20238 0,0 0,0 0,0 z"
             style="fill:#ffffff;fill-opacity:1;fill-rule:evenodd;stroke:none"
             id="path3200" />
          <path
             inkscape:connector-curvature="0"
             d="m 846.81288,850.41685 c 0,0 6.333,-5.23804 6.333,-5.23804 -0.2844,0.84839 0.2246,1.89698 0.8008,2.59399 0,0 5.9643,7.2107 5.9643,7.2107 -1.7016,1.32324 -2.8711,1.66015 -3.9941,2.03979 -0.8887,1.66016 -2.2681,3.29346 -4.2163,4.8291 -6.8567,5.40161 -13.0566,4.31397 -16.9837,-0.43334 -3.927,-4.74854 -4.2541,-11.22925 2.7613,-16.76393 1.5149,-1.19506 2.9846,-2.07518 4.3982,-2.67333 0.8825,-0.37232 2.5988,-0.88989 2.6513,-2.78809 0,0 1.1621,-0.6311 1.1621,-0.6311 0,0 4.1407,5.7019 4.1407,5.7019 0,0 -1.7908,1.48194 -1.7908,1.48194 -2.522,-1.52222 -5.9155,-1.39405 -8.938,1.10595 -4.1797,3.45703 -2.345,7.06177 0.5884,10.60913 2.9333,3.54614 6.2939,5.61402 10.1746,2.40357 1.6967,-1.40259 2.3828,-2.89795 2.373,-4.43238 0,0 -3.0347,-3.66942 -3.0347,-3.66942 -0.5835,-0.70558 -1.4465,-1.4917 -2.3901,-1.34644 0,0 0,0 0,0 z"
             style="fill:#ffffff;fill-opacity:1;fill-rule:evenodd;stroke:none"
             id="path3202" />
          <path
             inkscape:connector-curvature="0"
             d="m 689.72729,822.76547 c 3.09572,4.45313 0.3595,7.43165 -3.42039,10.0586 -3.77992,2.62818 -7.5708,3.7146 -10.44557,-0.41992 -2.87475,-4.13453 -0.53527,-7.30958 3.24524,-9.93774 3.7793,-2.62696 7.52503,-4.15527 10.62072,0.29906 0,0 0,0 0,0 z m 2.32484,-1.43432 c 4.9292,7.4524 3.20923,13.37036 -1.84936,16.88721 -4.12904,2.86988 -9.2859,3.14086 -13.65845,-0.81544 0.14526,0.71045 0.32593,1.43434 0.59631,2.17164 0.36804,1.00098 1.17737,1.99096 2.05933,2.59521 0,0 -0.48463,1.65894 -0.48463,1.65894 -2.00988,-0.3186 -4.08141,-1.35986 -5.00487,-3.38135 -1.28601,-2.81737 -0.10988,-5.02564 -1.01014,-7.98706 -0.0311,-0.1025 -0.0678,-0.20751 -0.10737,-0.31371 -0.17335,-0.33204 -0.33266,-0.6604 -0.47914,-0.98634 -0.87219,-1.49658 -2.33825,-2.94678 -3.29895,-2.92603 0,0 0.058,-2.18017 0.058,-2.18017 0.71777,-0.009 1.38611,0.19287 2.00561,0.53955 -0.31616,-3.93433 1.49903,-7.18871 4.6991,-9.41284 5.0592,-3.51685 11.5448,-3.30322 16.47461,4.15039 0,0 0,0 0,0 z"
             style="fill:#ffffff;fill-opacity:1;fill-rule:evenodd;stroke:none"
             id="path3204" />
        </g>
        <g
           id="g3683"
           transform="matrix(0.69136421,0,0,0.69136421,-334.14901,162.2727)"
           style="fill:#ffffff">
          <path
             inkscape:connector-curvature="0"
             d="m 1030.6554,571.01345 c 0,0 6.9519,17.82043 6.9519,17.82043 0.5224,1.33849 0.9344,2.16858 1.2298,2.49023 0.3015,0.31494 0.741,0.5072 1.3178,0.58045 0.5774,0.072 1.4093,-0.072 2.481,-0.43213 0,0 0.6495,-0.21912 0.6495,-0.21912 0,0 0.2301,0.59265 0.2301,0.59265 0,0 -14.9341,5.03174 -14.9341,5.03174 0,0 -0.2313,-0.59326 -0.2313,-0.59326 0,0 0.7568,-0.25451 0.7568,-0.25451 1.2128,-0.40894 2.0337,-0.80933 2.4652,-1.19629 0.4303,-0.38696 0.6647,-0.80139 0.697,-1.23414 0.041,-0.43517 -0.2087,-1.3446 -0.7434,-2.71606 0,0 -4.4055,-11.29273 -4.4055,-11.29273 -0.3943,-1.00951 -0.7043,-1.61987 -0.929,-1.8225 -0.2203,-0.21118 -0.5389,-0.34485 -0.9521,-0.41077 -0.4108,-0.061 -0.8374,-0.0165 -1.2805,0.13245 -0.7135,0.24047 -1.5112,0.70129 -2.3969,1.3916 0,0 -0.5999,-0.45654 -0.5999,-0.45654 0,0 9.002,-7.17835 9.002,-7.17835 0,0 0.6916,-0.23315 0.6916,-0.23315 0,0 0,0 0,0 z"
             style="fill:#ffffff;fill-opacity:1;fill-rule:nonzero;stroke:none"
             id="path3182" />
          <path
             inkscape:connector-curvature="0"
             d="m 1060.8409,580.1913 c 0.1069,-1.32934 0.1447,-2.50488 0.1148,-3.51258 -0.065,-2.15636 -0.4242,-4.15527 -1.0834,-5.99731 -0.3675,-1.02111 -0.8997,-1.76147 -1.5845,-2.2229 -0.3583,-0.24719 -0.827,-0.35766 -1.3953,-0.33752 -0.7147,0.0263 -1.2616,0.3003 -1.6394,0.82031 -0.5407,0.72449 -0.7769,2.06482 -0.7183,4.0387 0.098,3.28491 0.6396,5.53284 1.6168,6.74499 0.6366,0.78431 1.4715,1.1554 2.5067,1.11695 0.5597,-0.0201 1.2836,-0.2356 2.1826,-0.65064 0,0 0,0 0,0 z m -11.8988,12.15576 c 0,0 -0.015,-0.49805 -0.015,-0.49805 2.3474,-0.53466 4.3322,-1.27562 5.9448,-2.21069 1.6205,-0.94177 2.8924,-2.06908 3.8086,-3.39721 0.9234,-1.32996 1.557,-2.8418 1.886,-4.54469 -0.871,0.41504 -1.6138,0.70313 -2.229,0.87769 -0.6153,0.16846 -1.261,0.2655 -1.9452,0.29053 -2.193,0.08 -4.0351,-0.50964 -5.5323,-1.77368 -1.5045,-1.26465 -2.2869,-3.03711 -2.3553,-5.32592 -0.048,-1.5918 0.3107,-3.06398 1.0577,-4.41713 0.7477,-1.34521 1.8457,-2.41332 3.2892,-3.2019 1.4429,-0.78247 2.9553,-1.20239 4.5361,-1.25976 1.698,-0.0623 3.3057,0.28686 4.8377,1.04004 1.5326,0.74707 2.7777,1.87438 3.7207,3.37341 0.9405,1.49659 1.438,3.22387 1.4954,5.17945 0.076,2.53784 -0.5793,4.99389 -1.9678,7.37304 -1.388,2.37853 -3.5108,4.32435 -6.3538,5.83801 -2.8515,1.50819 -6.2402,2.39136 -10.1776,2.65686 0,0 0,0 0,0 z"
             style="fill:#ffffff;fill-opacity:1;fill-rule:nonzero;stroke:none"
             id="path3184" />
          <path
             inkscape:connector-curvature="0"
             d="m 1082.484,579.93435 c -0.4798,0.28136 -0.8301,0.55175 -1.0559,0.80444 -0.3382,0.38025 -0.6702,0.95581 -0.9998,1.7218 -0.3284,0.76538 -0.5518,1.57226 -0.6641,2.43042 -0.1452,1.10718 -0.091,2.04406 0.1453,2.82226 0.2441,0.77942 0.6616,1.36842 1.2512,1.75598 0.5896,0.39246 1.2146,0.625 1.8848,0.69092 1.04,0.1025 1.9543,-0.1294 2.749,-0.68481 0.7886,-0.56152 1.2586,-1.3855 1.4014,-2.47436 0.2978,-2.27845 -1.272,-4.63806 -4.7119,-7.06665 0,0 0,0 0,0 z m 4.7509,-3.30018 c 0.6067,-0.53161 1.0791,-1.15478 1.4295,-1.85668 0.3577,-0.70008 0.5859,-1.48804 0.6995,-2.35474 0.2001,-1.5271 -0.049,-2.73316 -0.7349,-3.62244 -0.5139,-0.6842 -1.2964,-1.07116 -2.3511,-1.17554 -0.9534,-0.094 -1.7981,0.10863 -2.5415,0.61279 -0.7434,0.50049 -1.1645,1.17738 -1.2756,2.02515 -0.1124,0.85266 0.1428,1.77979 0.7629,2.77833 0.6299,0.99426 1.969,2.19176 4.0112,3.59314 0,0 0,0 0,0 z m 1.504,1.0614 c 1.8689,1.43311 3.1286,2.72095 3.7756,3.86292 0.6543,1.13586 0.8874,2.39563 0.7068,3.77197 -0.2515,1.92444 -1.3452,3.46558 -3.2739,4.62769 -1.9275,1.156 -4.4019,1.58753 -7.4134,1.28968 -2.8503,-0.28077 -4.9866,-1.08277 -6.3989,-2.39685 -1.4124,-1.31409 -2.0044,-2.81617 -1.7847,-4.49403 0.1685,-1.28051 0.7666,-2.35412 1.7945,-3.23302 1.0278,-0.87282 2.6489,-1.60218 4.8571,-2.19423 -2.1032,-1.6687 -3.4167,-2.99865 -3.9392,-3.9746 -0.5261,-0.9784 -0.7153,-2.07459 -0.5566,-3.28309 0.2087,-1.59972 1.2158,-2.9248 3.0188,-3.97705 1.7969,-1.05346 4.1247,-1.4386 6.9836,-1.156 2.7564,0.2716 4.8035,1.01684 6.1463,2.23877 1.3513,1.22253 1.925,2.5824 1.7273,4.08569 -0.1477,1.13037 -0.6848,2.08252 -1.5979,2.86865 -0.9131,0.78064 -2.2657,1.43922 -4.0454,1.96351 0,0 0,0 0,0 z"
             style="fill:#ffffff;fill-opacity:1;fill-rule:nonzero;stroke:none"
             id="path3186" />
          <path
             inkscape:connector-curvature="0"
             d="m 1102.5877,594.42226 c 0,0 14.7083,-16.22497 14.7083,-16.22497 0,0 -5.7947,-1.74562 -5.7947,-1.74562 -2.262,-0.68176 -4.0552,-0.95825 -5.376,-0.82641 -0.9265,0.0866 -1.8213,0.51575 -2.7002,1.27319 0,0 -0.78,-0.23559 -0.78,-0.23559 0,0 4.6912,-6.36291 4.6912,-6.36291 0,0 16.6406,5.01404 16.6406,5.01404 0,0 -18.1555,20.083 -18.1555,20.083 0,0 -3.2337,-0.97473 -3.2337,-0.97473 0,0 0,0 0,0 z"
             style="fill:#ffffff;fill-opacity:1;fill-rule:nonzero;stroke:none"
             id="path3188" />
        </g>
      </g>
      <g
         transform="translate(625.16576,-0.01023)"
         id="g4630">
        <path
           style="fill:#ca8000;fill-opacity:1;stroke:none"
           d="m -237.18506,335.28125 c 0,0 -3.73659,6.48649 -7.37744,6.78125 -4.98097,0.40326 -10.5625,-4.3125 -10.5625,-4.3125 l 9.84375,27.6875 27.53125,0 27.53125,0 9.8125,-27.6875 c 0,0 -5.55028,4.71576 -10.53125,4.3125 -3.64085,-0.29476 -7.37744,-6.78125 -7.37744,-6.78125 0,0 -4.09652,7.75383 -10.02881,7.9375 -4.7325,0.14653 -9.40625,-7.95964 -9.40625,-7.95964 0,0 -4.67375,8.10617 -9.40625,7.95964 -5.93229,-0.18367 -10.02881,-7.9375 -10.02881,-7.9375 z"
           transform="translate(0,152.36224)"
           id="path4605"
           inkscape:connector-curvature="0"
           sodipodi:nodetypes="cscccccscscsc" />
        <g
           id="g4616"
           style="fill:#ca8000;fill-opacity:1;stroke:none">
          <path
             transform="matrix(1.5275561,0,0,1.5275561,128.92176,-15.628097)"
             d="m -235.8587,322.23914 c 0,1.89097 -1.53293,3.42391 -3.42391,3.42391 -1.89097,0 -3.42391,-1.53294 -3.42391,-3.42391 0,-1.89098 1.53294,-3.42392 3.42391,-3.42392 1.89098,0 3.42391,1.53294 3.42391,3.42392 z"
             sodipodi:ry="3.423913"
             sodipodi:rx="3.423913"
             sodipodi:cy="322.23914"
             sodipodi:cx="-239.28261"
             id="path4612"
             style="fill:#ca8000;fill-opacity:1;fill-rule:nonzero;stroke:none"
             sodipodi:type="arc" />
          <path
             sodipodi:type="arc"
             style="fill:#ca8000;fill-opacity:1;fill-rule:nonzero;stroke:none"
             id="path4614"
             sodipodi:cx="-239.28261"
             sodipodi:cy="322.23914"
             sodipodi:rx="3.423913"
             sodipodi:ry="3.423913"
             d="m -235.8587,322.23914 c 0,1.89097 -1.53293,3.42391 -3.42391,3.42391 -1.89097,0 -3.42391,-1.53294 -3.42391,-3.42391 0,-1.89098 1.53294,-3.42392 3.42391,-3.42392 1.89098,0 3.42391,1.53294 3.42391,3.42392 z"
             transform="matrix(1.5275561,0,0,1.5275561,109.65002,-10.94344)" />
        </g>
        <path
           transform="matrix(-1.5275561,0,0,1.5275561,-564.43804,-15.628097)"
           d="m -235.8587,322.23914 c 0,1.89097 -1.53293,3.42391 -3.42391,3.42391 -1.89097,0 -3.42391,-1.53294 -3.42391,-3.42391 0,-1.89098 1.53294,-3.42392 3.42391,-3.42392 1.89098,0 3.42391,1.53294 3.42391,3.42392 z"
           sodipodi:ry="3.423913"
           sodipodi:rx="3.423913"
           sodipodi:cy="322.23914"
           sodipodi:cx="-239.28261"
           id="path4622"
           style="fill:#ca8000;fill-opacity:1;fill-rule:nonzero;stroke:none"
           sodipodi:type="arc" />
        <path
           sodipodi:type="arc"
           style="fill:#ca8000;fill-opacity:1;fill-rule:nonzero;stroke:none"
           id="path4624"
           sodipodi:cx="-239.28261"
           sodipodi:cy="322.23914"
           sodipodi:rx="3.423913"
           sodipodi:ry="3.423913"
           d="m -235.8587,322.23914 c 0,1.89097 -1.53293,3.42391 -3.42391,3.42391 -1.89097,0 -3.42391,-1.53294 -3.42391,-3.42391 0,-1.89098 1.53294,-3.42392 3.42391,-3.42392 1.89098,0 3.42391,1.53294 3.42391,3.42392 z"
           transform="matrix(-1.5275561,0,0,1.5275561,-545.1663,-10.94344)" />
        <path
           sodipodi:type="arc"
           style="fill:#ca8000;fill-opacity:1;fill-rule:nonzero;stroke:none"
           id="path4628"
           sodipodi:cx="-239.28261"
           sodipodi:cy="322.23914"
           sodipodi:rx="3.423913"
           sodipodi:ry="3.423913"
           d="m -235.8587,322.23914 c 0,1.89097 -1.53293,3.42391 -3.42391,3.42391 -1.89097,0 -3.42391,-1.53294 -3.42391,-3.42391 0,-1.89098 1.53294,-3.42392 3.42391,-3.42392 1.89098,0 3.42391,1.53294 3.42391,3.42392 z"
           transform="matrix(-1.5275561,0,0,1.5275561,-583.27575,-18.465054)" />
      </g>
      <g
         transform="translate(628,0)"
         id="g4692">
        <g
           id="g4659"
           style="fill:#ca8000;fill-opacity:1">
          <path
             inkscape:transform-center-y="1.0445616"
             inkscape:transform-center-x="-0.51301881"
             transform="translate(31.304348,108.53615)"
             d="m -371.87667,675.8779 -4.73671,-10.73961 -11.67323,1.22945 8.75026,-7.8236 -4.77651,-10.72198 10.14467,5.90437 8.72118,-7.85601 -2.48051,11.4727 10.1665,5.8667 -11.67771,1.18616 z"
             inkscape:randomized="0"
             inkscape:rounded="0"
             inkscape:flatsided="false"
             sodipodi:arg2="2.0960332"
             sodipodi:arg1="1.4677147"
             sodipodi:r2="6.1356945"
             sodipodi:r1="16.133892"
             sodipodi:cy="659.82965"
             sodipodi:cx="-373.53683"
             sodipodi:sides="5"
             id="path4639"
             style="fill:#ca8000;fill-opacity:1;fill-rule:nonzero;stroke:none"
             sodipodi:type="star" />
          <path
             sodipodi:type="star"
             style="fill:#ca8000;fill-opacity:1;fill-rule:nonzero;stroke:none"
             id="path4641"
             sodipodi:sides="5"
             sodipodi:cx="-373.53683"
             sodipodi:cy="659.82965"
             sodipodi:r1="16.133892"
             sodipodi:r2="6.1356945"
             sodipodi:arg1="1.4677147"
             sodipodi:arg2="2.0960332"
             inkscape:flatsided="false"
             inkscape:rounded="0"
             inkscape:randomized="0"
             d="m -371.87667,675.8779 -4.73671,-10.73961 -11.67323,1.22945 8.75026,-7.8236 -4.77651,-10.72198 10.14467,5.90437 8.72118,-7.85601 -2.48051,11.4727 10.1665,5.8667 -11.67771,1.18616 z"
             transform="matrix(0.79659159,-0.31083149,0.31083149,0.79659159,-227.40882,145.95851)"
             inkscape:transform-center-x="-0.65059593"
             inkscape:transform-center-y="-0.68321523" />
          <path
             inkscape:transform-center-y="0.24569087"
             inkscape:transform-center-x="1.0815131"
             transform="matrix(0.53349591,-0.66824882,0.66824882,0.53349591,-570.9269,213.1643)"
             d="m -371.87667,675.8779 -4.73671,-10.73961 -11.67323,1.22945 8.75026,-7.8236 -4.77651,-10.72198 10.14467,5.90437 8.72118,-7.85601 -2.48051,11.4727 10.1665,5.8667 -11.67771,1.18616 z"
             inkscape:randomized="0"
             inkscape:rounded="0"
             inkscape:flatsided="false"
             sodipodi:arg2="2.0960332"
             sodipodi:arg1="1.4677147"
             sodipodi:r2="6.1356945"
             sodipodi:r1="16.133892"
             sodipodi:cy="659.82965"
             sodipodi:cx="-373.53683"
             sodipodi:sides="5"
             id="path4643"
             style="fill:#ca8000;fill-opacity:1;fill-rule:nonzero;stroke:none"
             sodipodi:type="star" />
          <path
             inkscape:transform-center-y="-0.72635095"
             inkscape:transform-center-x="-0.44992733"
             transform="matrix(0.69345663,-0.29758134,0.29758134,0.69345663,-232.352,238.10939)"
             d="m -371.87667,675.8779 -4.73671,-10.73961 -11.67323,1.22945 8.75026,-7.8236 -4.77651,-10.72198 10.14467,5.90437 8.72118,-7.85601 -2.48051,11.4727 10.1665,5.8667 -11.67771,1.18616 z"
             inkscape:randomized="0"
             inkscape:rounded="0"
             inkscape:flatsided="false"
             sodipodi:arg2="2.0960332"
             sodipodi:arg1="1.4677147"
             sodipodi:r2="6.1356945"
             sodipodi:r1="16.133892"
             sodipodi:cy="659.82965"
             sodipodi:cx="-373.53683"
             sodipodi:sides="5"
             id="path4645"
             style="fill:#ca8000;fill-opacity:1;fill-rule:nonzero;stroke:none"
             sodipodi:type="star" />
          <path
             sodipodi:type="star"
             style="fill:#ca8000;fill-opacity:1;fill-rule:nonzero;stroke:none"
             id="path4647"
             sodipodi:sides="5"
             sodipodi:cx="-373.53683"
             sodipodi:cy="659.82965"
             sodipodi:r1="16.133892"
             sodipodi:r2="6.1356945"
             sodipodi:arg1="1.4677147"
             sodipodi:arg2="2.0960332"
             inkscape:flatsided="false"
             inkscape:rounded="0"
             inkscape:randomized="0"
             d="m -371.87667,675.8779 -4.73671,-10.73961 -11.67323,1.22945 8.75026,-7.8236 -4.77651,-10.72198 10.14467,5.90437 8.72118,-7.85601 -2.48051,11.4727 10.1665,5.8667 -11.67771,1.18616 z"
             transform="matrix(0.28172279,-0.56960858,0.56960858,0.28172279,-574.14506,429.26579)"
             inkscape:transform-center-x="0.13324556"
             inkscape:transform-center-y="0.85143118" />
          <path
             inkscape:transform-center-y="0.89437489"
             inkscape:transform-center-x="0.36484891"
             transform="matrix(0.39342267,-0.70696486,0.70696486,0.39342267,-593.73827,303.49096)"
             d="m -371.87667,675.8779 -4.73671,-10.73961 -11.67323,1.22945 8.75026,-7.8236 -4.77651,-10.72198 10.14467,5.90437 8.72118,-7.85601 -2.48051,11.4727 10.1665,5.8667 -11.67771,1.18616 z"
             inkscape:randomized="0"
             inkscape:rounded="0"
             inkscape:flatsided="false"
             sodipodi:arg2="2.0960332"
             sodipodi:arg1="1.4677147"
             sodipodi:r2="6.1356945"
             sodipodi:r1="16.133892"
             sodipodi:cy="659.82965"
             sodipodi:cx="-373.53683"
             sodipodi:sides="5"
             id="path4649"
             style="fill:#ca8000;fill-opacity:1;fill-rule:nonzero;stroke:none"
             sodipodi:type="star" />
          <path
             sodipodi:type="star"
             style="fill:#ca8000;fill-opacity:1;fill-rule:nonzero;stroke:none"
             id="path4651"
             sodipodi:sides="5"
             sodipodi:cx="-373.53683"
             sodipodi:cy="659.82965"
             sodipodi:r1="16.133892"
             sodipodi:r2="6.1356945"
             sodipodi:arg1="1.4677147"
             sodipodi:arg2="2.0960332"
             inkscape:flatsided="false"
             inkscape:rounded="0"
             inkscape:randomized="0"
             d="m -371.87667,675.8779 -4.73671,-10.73961 -11.67323,1.22945 8.75026,-7.8236 -4.77651,-10.72198 10.14467,5.90437 8.72118,-7.85601 -2.48051,11.4727 10.1665,5.8667 -11.67771,1.18616 z"
             transform="matrix(0.06597691,-0.80636701,0.80636701,0.06597691,-752.87894,486.33205)"
             inkscape:transform-center-x="-1.1639413"
             inkscape:transform-center-y="-0.086495792" />
          <path
             inkscape:transform-center-y="0.85143118"
             inkscape:transform-center-x="0.13324556"
             transform="matrix(0.28172279,-0.56960858,0.56960858,0.28172279,-527.18854,452.9397)"
             d="m -371.87667,675.8779 -4.73671,-10.73961 -11.67323,1.22945 8.75026,-7.8236 -4.77651,-10.72198 10.14467,5.90437 8.72118,-7.85601 -2.48051,11.4727 10.1665,5.8667 -11.67771,1.18616 z"
             inkscape:randomized="0"
             inkscape:rounded="0"
             inkscape:flatsided="false"
             sodipodi:arg2="2.0960332"
             sodipodi:arg1="1.4677147"
             sodipodi:r2="6.1356945"
             sodipodi:r1="16.133892"
             sodipodi:cy="659.82965"
             sodipodi:cx="-373.53683"
             sodipodi:sides="5"
             id="path4653"
             style="fill:#ca8000;fill-opacity:1;fill-rule:nonzero;stroke:none"
             sodipodi:type="star" />
          <path
             sodipodi:type="star"
             style="fill:#ca8000;fill-opacity:1;fill-rule:nonzero;stroke:none"
             id="path4655"
             sodipodi:sides="5"
             sodipodi:cx="-373.53683"
             sodipodi:cy="659.82965"
             sodipodi:r1="16.133892"
             sodipodi:r2="6.1356945"
             sodipodi:arg1="1.4677147"
             sodipodi:arg2="2.0960332"
             inkscape:flatsided="false"
             inkscape:rounded="0"
             inkscape:randomized="0"
             d="m -371.87667,675.8779 -4.73671,-10.73961 -11.67323,1.22945 8.75026,-7.8236 -4.77651,-10.72198 10.14467,5.90437 8.72118,-7.85601 -2.48051,11.4727 10.1665,5.8667 -11.67771,1.18616 z"
             transform="matrix(0.07169657,-0.52212742,0.52212742,0.07169657,-549.15189,613.09045)"
             inkscape:transform-center-x="-0.72810401"
             inkscape:transform-center-y="0.087685413" />
        </g>
        <path
           sodipodi:type="star"
           style="fill:#ca8000;fill-opacity:1;fill-rule:nonzero;stroke:none"
           id="path4657"
           sodipodi:sides="5"
           sodipodi:cx="-373.53683"
           sodipodi:cy="659.82965"
           sodipodi:r1="16.133892"
           sodipodi:r2="6.1356945"
           sodipodi:arg1="1.4677147"
           sodipodi:arg2="2.0960332"
           inkscape:flatsided="false"
           inkscape:rounded="0"
           inkscape:randomized="0"
           d="m -371.87667,675.8779 -4.73671,-10.73961 -11.67323,1.22945 8.75026,-7.8236 -4.77651,-10.72198 10.14467,5.90437 8.72118,-7.85601 -2.48051,11.4727 10.1665,5.8667 -11.67771,1.18616 z"
           transform="matrix(-0.10359139,-0.51674584,0.51674584,-0.10359139,-598.53043,751.90849)"
           inkscape:transform-center-x="-0.034754554"
           inkscape:transform-center-y="-0.77883044" />
        <g
           id="g4670"
           inkscape:transform-center-x="-72.192884"
           transform="matrix(-1,0,0,1,-437.95108,0)"
           style="fill:#ca8000;fill-opacity:1">
          <path
             sodipodi:type="star"
             style="fill:#ca8000;fill-opacity:1;fill-rule:nonzero;stroke:none"
             id="path4672"
             sodipodi:sides="5"
             sodipodi:cx="-373.53683"
             sodipodi:cy="659.82965"
             sodipodi:r1="16.133892"
             sodipodi:r2="6.1356945"
             sodipodi:arg1="1.4677147"
             sodipodi:arg2="2.0960332"
             inkscape:flatsided="false"
             inkscape:rounded="0"
             inkscape:randomized="0"
             d="m -371.87667,675.8779 -4.73671,-10.73961 -11.67323,1.22945 8.75026,-7.8236 -4.77651,-10.72198 10.14467,5.90437 8.72118,-7.85601 -2.48051,11.4727 10.1665,5.8667 -11.67771,1.18616 z"
             transform="translate(31.304348,108.53615)"
             inkscape:transform-center-x="-0.51301881"
             inkscape:transform-center-y="1.0445616" />
          <path
             inkscape:transform-center-y="-0.68321523"
             inkscape:transform-center-x="-0.65059593"
             transform="matrix(0.79659159,-0.31083149,0.31083149,0.79659159,-227.40882,145.95851)"
             d="m -371.87667,675.8779 -4.73671,-10.73961 -11.67323,1.22945 8.75026,-7.8236 -4.77651,-10.72198 10.14467,5.90437 8.72118,-7.85601 -2.48051,11.4727 10.1665,5.8667 -11.67771,1.18616 z"
             inkscape:randomized="0"
             inkscape:rounded="0"
             inkscape:flatsided="false"
             sodipodi:arg2="2.0960332"
             sodipodi:arg1="1.4677147"
             sodipodi:r2="6.1356945"
             sodipodi:r1="16.133892"
             sodipodi:cy="659.82965"
             sodipodi:cx="-373.53683"
             sodipodi:sides="5"
             id="path4674"
             style="fill:#ca8000;fill-opacity:1;fill-rule:nonzero;stroke:none"
             sodipodi:type="star" />
          <path
             sodipodi:type="star"
             style="fill:#ca8000;fill-opacity:1;fill-rule:nonzero;stroke:none"
             id="path4676"
             sodipodi:sides="5"
             sodipodi:cx="-373.53683"
             sodipodi:cy="659.82965"
             sodipodi:r1="16.133892"
             sodipodi:r2="6.1356945"
             sodipodi:arg1="1.4677147"
             sodipodi:arg2="2.0960332"
             inkscape:flatsided="false"
             inkscape:rounded="0"
             inkscape:randomized="0"
             d="m -371.87667,675.8779 -4.73671,-10.73961 -11.67323,1.22945 8.75026,-7.8236 -4.77651,-10.72198 10.14467,5.90437 8.72118,-7.85601 -2.48051,11.4727 10.1665,5.8667 -11.67771,1.18616 z"
             transform="matrix(0.53349591,-0.66824882,0.66824882,0.53349591,-570.9269,213.1643)"
             inkscape:transform-center-x="1.0815131"
             inkscape:transform-center-y="0.24569087" />
          <path
             sodipodi:type="star"
             style="fill:#ca8000;fill-opacity:1;fill-rule:nonzero;stroke:none"
             id="path4678"
             sodipodi:sides="5"
             sodipodi:cx="-373.53683"
             sodipodi:cy="659.82965"
             sodipodi:r1="16.133892"
             sodipodi:r2="6.1356945"
             sodipodi:arg1="1.4677147"
             sodipodi:arg2="2.0960332"
             inkscape:flatsided="false"
             inkscape:rounded="0"
             inkscape:randomized="0"
             d="m -371.87667,675.8779 -4.73671,-10.73961 -11.67323,1.22945 8.75026,-7.8236 -4.77651,-10.72198 10.14467,5.90437 8.72118,-7.85601 -2.48051,11.4727 10.1665,5.8667 -11.67771,1.18616 z"
             transform="matrix(0.69345663,-0.29758134,0.29758134,0.69345663,-232.352,238.10939)"
             inkscape:transform-center-x="-0.44992733"
             inkscape:transform-center-y="-0.72635095" />
          <path
             inkscape:transform-center-y="0.85143118"
             inkscape:transform-center-x="0.13324556"
             transform="matrix(0.28172279,-0.56960858,0.56960858,0.28172279,-574.14506,429.26579)"
             d="m -371.87667,675.8779 -4.73671,-10.73961 -11.67323,1.22945 8.75026,-7.8236 -4.77651,-10.72198 10.14467,5.90437 8.72118,-7.85601 -2.48051,11.4727 10.1665,5.8667 -11.67771,1.18616 z"
             inkscape:randomized="0"
             inkscape:rounded="0"
             inkscape:flatsided="false"
             sodipodi:arg2="2.0960332"
             sodipodi:arg1="1.4677147"
             sodipodi:r2="6.1356945"
             sodipodi:r1="16.133892"
             sodipodi:cy="659.82965"
             sodipodi:cx="-373.53683"
             sodipodi:sides="5"
             id="path4680"
             style="fill:#ca8000;fill-opacity:1;fill-rule:nonzero;stroke:none"
             sodipodi:type="star" />
          <path
             sodipodi:type="star"
             style="fill:#ca8000;fill-opacity:1;fill-rule:nonzero;stroke:none"
             id="path4682"
             sodipodi:sides="5"
             sodipodi:cx="-373.53683"
             sodipodi:cy="659.82965"
             sodipodi:r1="16.133892"
             sodipodi:r2="6.1356945"
             sodipodi:arg1="1.4677147"
             sodipodi:arg2="2.0960332"
             inkscape:flatsided="false"
             inkscape:rounded="0"
             inkscape:randomized="0"
             d="m -371.87667,675.8779 -4.73671,-10.73961 -11.67323,1.22945 8.75026,-7.8236 -4.77651,-10.72198 10.14467,5.90437 8.72118,-7.85601 -2.48051,11.4727 10.1665,5.8667 -11.67771,1.18616 z"
             transform="matrix(0.39342267,-0.70696486,0.70696486,0.39342267,-593.73827,303.49096)"
             inkscape:transform-center-x="0.36484891"
             inkscape:transform-center-y="0.89437489" />
          <path
             inkscape:transform-center-y="-0.086495792"
             inkscape:transform-center-x="-1.1639413"
             transform="matrix(0.06597691,-0.80636701,0.80636701,0.06597691,-752.87894,486.33205)"
             d="m -371.87667,675.8779 -4.73671,-10.73961 -11.67323,1.22945 8.75026,-7.8236 -4.77651,-10.72198 10.14467,5.90437 8.72118,-7.85601 -2.48051,11.4727 10.1665,5.8667 -11.67771,1.18616 z"
             inkscape:randomized="0"
             inkscape:rounded="0"
             inkscape:flatsided="false"
             sodipodi:arg2="2.0960332"
             sodipodi:arg1="1.4677147"
             sodipodi:r2="6.1356945"
             sodipodi:r1="16.133892"
             sodipodi:cy="659.82965"
             sodipodi:cx="-373.53683"
             sodipodi:sides="5"
             id="path4684"
             style="fill:#ca8000;fill-opacity:1;fill-rule:nonzero;stroke:none"
             sodipodi:type="star" />
          <path
             sodipodi:type="star"
             style="fill:#ca8000;fill-opacity:1;fill-rule:nonzero;stroke:none"
             id="path4686"
             sodipodi:sides="5"
             sodipodi:cx="-373.53683"
             sodipodi:cy="659.82965"
             sodipodi:r1="16.133892"
             sodipodi:r2="6.1356945"
             sodipodi:arg1="1.4677147"
             sodipodi:arg2="2.0960332"
             inkscape:flatsided="false"
             inkscape:rounded="0"
             inkscape:randomized="0"
             d="m -371.87667,675.8779 -4.73671,-10.73961 -11.67323,1.22945 8.75026,-7.8236 -4.77651,-10.72198 10.14467,5.90437 8.72118,-7.85601 -2.48051,11.4727 10.1665,5.8667 -11.67771,1.18616 z"
             transform="matrix(0.28172279,-0.56960858,0.56960858,0.28172279,-527.18854,452.9397)"
             inkscape:transform-center-x="0.13324556"
             inkscape:transform-center-y="0.85143118" />
          <path
             inkscape:transform-center-y="0.087685413"
             inkscape:transform-center-x="-0.72810401"
             transform="matrix(0.07169657,-0.52212742,0.52212742,0.07169657,-549.15189,613.09045)"
             d="m -371.87667,675.8779 -4.73671,-10.73961 -11.67323,1.22945 8.75026,-7.8236 -4.77651,-10.72198 10.14467,5.90437 8.72118,-7.85601 -2.48051,11.4727 10.1665,5.8667 -11.67771,1.18616 z"
             inkscape:randomized="0"
             inkscape:rounded="0"
             inkscape:flatsided="false"
             sodipodi:arg2="2.0960332"
             sodipodi:arg1="1.4677147"
             sodipodi:r2="6.1356945"
             sodipodi:r1="16.133892"
             sodipodi:cy="659.82965"
             sodipodi:cx="-373.53683"
             sodipodi:sides="5"
             id="path4688"
             style="fill:#ca8000;fill-opacity:1;fill-rule:nonzero;stroke:none"
             sodipodi:type="star" />
        </g>
        <path
           inkscape:transform-center-y="45.688561"
           inkscape:transform-center-x="-1.7956241"
           transform="matrix(-0.10359139,-0.51674584,0.51674584,-0.10359139,-599.01956,708.0824)"
           d="m -371.87667,675.8779 -4.73671,-10.73961 -11.67323,1.22945 8.75026,-7.8236 -4.77651,-10.72198 10.14467,5.90437 8.72118,-7.85601 -2.48051,11.4727 10.1665,5.8667 -11.67771,1.18616 z"
           inkscape:randomized="0"
           inkscape:rounded="0"
           inkscape:flatsided="false"
           sodipodi:arg2="2.0960332"
           sodipodi:arg1="1.4677147"
           sodipodi:r2="6.1356945"
           sodipodi:r1="16.133892"
           sodipodi:cy="659.82965"
           sodipodi:cx="-373.53683"
           sodipodi:sides="5"
           id="path4690"
           style="fill:#ca8000;fill-opacity:1;fill-rule:nonzero;stroke:none"
           sodipodi:type="star" />
      </g>
    </g>
  </g>
</svg>
