<?xml version="1.0" encoding="utf-8"?>
<!-- Generator: Adobe Illustrator 13.0.2, SVG Export Plug-In . SVG Version: 6.00 Build 14948)  -->
<!DOCTYPE svg PUBLIC "-//W3C//DTD SVG 1.1 Tiny//EN" "http://www.w3.org/Graphics/SVG/1.1/DTD/svg11-tiny.dtd">
<svg version="1.1" baseProfile="tiny" id="Ebene_1" xmlns="http://www.w3.org/2000/svg" xmlns:xlink="http://www.w3.org/1999/xlink"
	 x="0px" y="0px" width="500px" height="500px" viewBox="0 0 500 500" xml:space="preserve">
<path fill="#BB0B31" d="M500,250.004C500,388.07,388.068,500,250,500C111.93,500,0,388.07,0,250.004C0,111.931,111.93,0,250,0
	C388.068,0,500,111.931,500,250.004"/>
<path fill="#FFFFFF" d="M250,4.899C114.636,4.899,4.9,114.635,4.9,250.003c0,135.359,109.736,245.098,245.1,245.098
	c135.362,0,245.101-109.738,245.101-245.098C495.101,114.635,385.362,4.899,250,4.899z"/>
<path fill="#BB0B31" d="M249.797,84.637c91.259,0,165.566,74.21,165.566,165.362c0,90.749-74.307,165.364-165.566,165.364
	c-90.862,0-165.16-74.615-165.16-165.364C84.637,158.847,158.936,84.637,249.797,84.637"/>
<path fill="#FFFFFF" d="M250,89.112v321.775c87.12-1.861,160.888-73.469,160.888-160.881C410.888,162.19,337.12,90.584,250,89.112"
	/>
<path fill="none" stroke="#BD0B2C" stroke-width="0" stroke-miterlimit="3.8636" d="M250,88.888v320.764
	c87.245-1.855,161.121-73.237,161.121-160.376C411.121,161.736,337.245,90.355,250,88.888z"/>
<path fill="#BB0B31" d="M321.072,193.937l-29.885-21.78l11.305,35.897l-29.074,22.583l36.744-0.019l11.715,34.711l10.9-35.116
	l36.746,0.023l-30.283-22.183l11.707-35.897C350.947,172.157,321.072,194.341,321.072,193.937"/>
<polyline fill="#BB0B31" points="408.289,414.12 408.695,413.721 408.289,412.915 408.289,414.12 "/>
<polyline fill="#BB0B31" points="124.818,115.389 124.818,114.587 125.22,114.986 124.818,115.389 "/>
<polyline fill="#BB0B31" points="381.238,435.835 354.585,402.859 364.688,394.816 385.283,420.951 403.045,406.476 
	408.695,413.721 381.238,435.835 "/>
<polyline fill="#BB0B31" points="216.078,441.062 199.927,438.645 201.14,430.2 246.364,436.233 245.151,444.676 228.598,442.666 
	224.56,476.04 212.039,474.429 216.078,441.062 "/>
<polyline fill="#BB0B31" points="119.971,381.951 147.429,404.472 142.182,410.506 125.22,396.834 118.354,404.472 134.51,417.736 
	129.258,424.175 113.107,410.904 103.009,423.362 92.512,414.926 119.971,381.951 "/>
<polyline fill="#BB0B31" points="469.667,198.213 471.687,209.874 455.129,212.288 458.368,231.987 474.926,229.976 
	476.944,243.244 434.543,248.471 432.521,235.606 449.888,233.595 447.062,213.089 429.29,215.503 427.679,203.844 469.667,198.213 
	"/>
<polyline fill="#BB0B31" points="228.018,23.239 240.089,22.786 241.681,66.512 229.724,67.08 228.018,23.239 "/>
<path fill="#BB0B31" d="M192.657,75.587L161.967,39l13.326-3.623c6.867,10.454,13.729,20.106,22.211,29.755l2.423-36.188
	l11.709-3.614l-4.847,45.832L192.657,75.587"/>
<polyline fill="#BB0B31" points="70.3,112.575 79.992,102.121 104.222,124.234 118.354,108.956 125.22,114.986 101.8,140.718 
	70.3,112.575 "/>
<path fill="#BB0B31" d="M63.031,182.533l5.654-11.661c2.019,0.807,4.041,0.807,6.06,0c1.612-1.205,3.228-3.216,4.843-6.028
	c1.213-2.414,1.616-4.421,1.616-6.033c0.403-2.007-0.403-2.813-1.616-3.616c-0.402,0-1.213,0-1.615,0
	c-0.806,0-1.208,0.399-2.019,0.802c-0.807,0.807-2.422,2.813-4.843,5.63c-2.426,3.216-4.849,5.626-6.464,7.637
	c-2.824,3.216-5.654,5.228-8.479,6.033c-2.422,1.205-4.848,0.802-7.27,0c-3.635-1.612-5.653-4.828-6.057-8.845
	c-0.805-4.423,0.403-9.649,3.634-15.279c2.825-6.033,6.057-10.052,9.692-12.063c4.038-2.41,8.076-2.812,11.71-1.205l-5.653,11.256
	c-1.617-0.402-3.636,0-4.844,0.807c-1.616,0.802-2.829,2.813-4.042,5.227c-1.208,1.609-1.616,3.616-1.616,5.228
	c0,1.205,0.81,2.41,1.616,2.813c1.616,0.804,4.848-1.607,9.289-6.834c0.811-0.807,1.213-1.609,1.616-2.011l0.403-0.403
	c4.444-5.228,7.672-8.444,9.288-9.649c1.616-1.205,3.636-1.609,5.251-2.012c1.615,0,3.634,0,5.251,0.807
	c3.634,1.607,5.652,4.824,6.056,9.245c0.404,4.824-1.213,10.052-4.444,16.887c-2.826,6.033-6.46,10.455-10.094,12.466
	C71.916,184.14,67.475,184.14,63.031,182.533"/>
<polyline fill="#BB0B31" points="65.457,254.503 22.247,248.877 24.266,236.408 41.629,238.822 26.69,219.524 29.113,204.247 
	44.458,225.957 72.726,208.265 70.3,223.543 46.477,239.627 67.072,241.639 65.457,254.503 "/>
<path fill="#BB0B31" d="M58.187,312.399l-1.213-12.464c2.426-0.398,4.039-1.604,4.849-3.217c1.208-2.01,1.616-4.428,1.208-7.636
	c-0.403-2.418-1.208-4.43-2.019-6.034c-0.807-1.212-2.02-2.012-3.228-1.604c-0.811,0-1.213,0-2.019,0.392
	c-0.407,0.406-0.81,1.212-0.81,1.611c-0.403,1.205-0.807,3.616-1.209,7.636c-0.407,3.625-0.81,6.84-1.213,9.658
	c-0.81,3.614-2.019,6.831-4.038,8.841c-1.615,2.41-4.037,3.616-6.458,4.023c-4.043,0.397-7.673-1.207-10.502-4.431
	c-2.824-3.614-4.844-8.434-5.25-14.866c-0.808-6.033-0.403-11.261,1.615-14.883c2.421-4.023,5.251-6.433,9.691-6.832l1.615,12.466
	c-2.019,0.399-3.231,1.604-4.038,2.816c-0.805,1.604-1.212,3.616-0.805,6.433c0.403,2.003,0.805,4.021,1.611,5.228
	c1.213,1.205,2.019,1.604,3.231,1.604c2.02-0.398,3.232-3.622,4.039-10.057c0.402-1.203,0.402-2.409,0.402-2.808
	c0-0.399,0-0.399,0-0.807c1.213-6.433,2.019-10.852,2.829-12.457c0.807-2.019,2.019-3.224,3.635-4.43
	c1.208-1.203,2.824-1.61,4.844-2.01c4.038-0.4,7.672,1.205,10.501,4.828c2.824,3.614,4.843,8.842,5.654,16.08
	c0.805,6.831,0,12.058-2.02,15.673C67.072,309.176,63.438,311.595,58.187,312.399"/>
<path fill="#BB0B31" d="M289.975,55.483l-4.446-18.495l-11.3,16.081L289.975,55.483 M294.826,29.749l14.131,45.838l-13.733-2.012
	l-2.417-9.647l-23.828-4.023l-5.656,7.642l-12.92-2.011l29.884-38.598L294.826,29.749z"/>
<path fill="#BB0B31" d="M151.063,78.399l-16.151-9.647l1.616,18.092L151.063,78.399 M137.737,55.483l39.979,26.132l-11.711,7.238
	l-8.075-4.824l-20.193,12.063l0.81,8.842l-10.903,6.834l-3.232-48.647L137.737,55.483z"/>
<path fill="#BB0B31" d="M359.835,76.389c2.021,1.208,3.632,1.608,5.251,1.608c1.214,0,2.419-0.802,3.232-2.007
	c1.204-1.612,1.204-2.816,0.806-4.424c-0.806-1.206-2.019-2.411-4.038-4.019l-7.27-4.425l-5.25,8.444L359.835,76.389 M351.76,49.052
	l19.383,12.462c4.846,3.215,8.076,6.833,9.688,10.454c1.619,3.619,1.212,7.238-1.214,10.454c-2.417,4.017-5.65,6.029-9.279,6.431
	c-4.038,0.404-8.482-1.205-13.327-4.419l-8.883-5.632l-8.073,12.461l-10.503-6.431L351.76,49.052z"/>
<path fill="#BB0B31" d="M403.045,113.377c1.613,2.011,3.225,3.216,4.846,3.619c1.619,0.402,2.824,0,4.036-1.205
	c1.214-1.205,1.611-2.414,1.214-3.619c0-1.608-1.214-3.217-2.833-5.228l-6.855-7.638l-7.277,6.433L403.045,113.377 M401.026,84.029
	l16.559,18.496c6.058,6.834,11.705,12.461,3.225,20.102c-1.611,1.607-3.632,2.41-5.65,2.41c-2.426,0.404-4.852-0.4-7.669-1.603
	c1.205,2.007,2.419,4.819,2.02,6.431c-0.407,1.205-1.221,4.421-3.24,6.433l-2.418,2.41c-2.426,2.414-3.64,4.425-3.232,5.63
	l-0.806,1.205l-9.694-10.454c0.813-1.603,2.02-3.216,4.038-4.824c1.619-2.011,2.833-3.216,3.239-3.616
	c1.204-1.208,1.612-2.817,1.204-4.021c0-1.205-0.806-2.817-2.426-4.421l-6.056-6.835l-11.707,10.853l-8.89-10.05L401.026,84.029z"/>
<path fill="#BB0B31" d="M432.117,174.895l12.919-15.279l-20.19,0.403L432.117,174.895 M455.536,163.638l-28.672,37.792
	l-6.861-12.461l6.464-7.238l-10.503-22.518h-9.287l-5.65-10.857l48.861,1.612L455.536,163.638z"/>
<path fill="#BB0B31" d="M444.636,290.413l18.578-5.228l-15.752-11.261L444.636,290.413 M470.482,294.833l-45.637,14.07l1.621-13.264
	l8.881-2.409l4.445-25.339l-7.419-4.631l2.169-12.256l37.959,28.146L470.482,294.833z"/>
<path fill="#BB0B31" d="M278.676,450.702c2.291-0.171,3.865-0.907,4.68-1.306c1.212-0.806,2.221-2.121,1.82-3.327
	c-0.188-1.704-0.694-2.003-1.82-2.769c-1.004-0.564-2.389-0.814-4.68-0.635l-10.534,0.884l0.837,7.968L278.676,450.702
	 M279.879,467.996c2.833-0.407,4.852-0.806,6.057-1.612c1.212-0.799,1.879-1.924,1.879-3.536c-0.173-1.613-0.547-2.653-1.755-3.461
	c-1.235-0.641-3.755-1.038-5.773-0.641l-10.831,1.019l0.83,9.185L279.879,467.996z M255.245,436.233l23.829-2.01
	c6.055-0.399,10.095,0,12.919,1.611c2.833,1.205,4.444,4.021,4.852,7.638c0,2.003-0.041,4.036-1.214,5.625
	c-1.212,1.604-2.824,2.809-5.25,4.022c2.824,0.399,5.164,1.244,6.871,2.747c1.753,1.83,2.44,3.271,2.565,5.791
	c0,2.636-0.148,4.726-1.362,6.744c-1.212,2.005-2.824,3.616-4.852,4.819c-1.61,0.8-3.223,1.612-5.647,2.014
	c-2.021,0.397-5.244,0.805-9.688,1.203l-19.385,2.012L255.245,436.233z"/>
<path fill="#BB0B31" d="M156.717,433.824c-2.02,4.014-2.423,7.237-1.21,10.445c0.807,2.817,3.228,5.229,6.864,6.841
	c3.634,1.61,6.866,2.01,9.69,0.796c2.829-1.204,4.847-3.614,6.868-7.637c1.615-4.021,2.018-7.229,0.805-10.445
	c-0.805-2.817-3.228-5.235-6.46-6.84c-3.635-1.604-6.866-2.012-9.69-0.806C160.754,427.384,158.333,429.801,156.717,433.824
	 M144.604,428.19c2.825-6.034,6.862-10.047,12.923-11.66c5.65-2.012,12.113-1.205,18.979,2.418
	c7.266,3.208,12.113,7.638,14.938,13.264c2.426,5.626,2.426,11.659-0.402,17.693c-2.825,6.432-7.27,10.453-12.924,12.059
	c-5.649,1.61-12.113,0.806-19.383-2.809c-7.269-3.226-12.113-7.638-14.535-13.272C141.372,440.248,141.774,434.622,144.604,428.19z"
	/>
<path fill="#BB0B31" d="M340.241,439.262l-14.288-12.559l0.023,19.664L340.241,439.262 M329.373,415.435l37.96,29.32l-12.379,6.262
	l-7.544-6.489l-21.785,10.447l-0.22,9.5l-11.722,5.807l2.19-48.766L329.373,415.435z"/>
</svg>
